<svg width="67" height="66" viewBox="0 0 67 66" fill="none" xmlns="http://www.w3.org/2000/svg">
<mask id="mask0_1332_3830" style="mask-type:alpha" maskUnits="userSpaceOnUse" x="0" y="0" width="67" height="66">
<circle cx="33.3909" cy="32.7327" r="32.7327" fill="#D9D9D9"/>
</mask>
<g mask="url(#mask0_1332_3830)">
<circle cx="33.3909" cy="32.7327" r="32.7327" fill="url(#paint0_linear_1332_3830)"/>
</g>
<path d="M15.2337 22.6285L16.5738 29.8214C16.4478 30.8522 16.4363 31.8945 16.5509 32.9253C17.2037 38.9613 20.2275 43.6344 25.5419 46.8185C29.2185 49.0176 32.7921 49.7048 33.3762 49.8194C33.9603 49.7163 37.4995 49.0176 41.1647 46.8185C46.4677 43.6344 49.5143 38.9613 50.213 32.9253C50.339 31.8372 50.3275 30.7491 50.1901 29.6725L50.1786 29.5808L51.4958 22.6285C51.7821 21.0365 51.198 19.4444 49.9496 18.4021C48.7011 17.3599 47.0404 17.0621 45.517 17.6233L43.169 18.4823L44.5206 20.3951L42.5162 18.7114L42.2871 18.5854C39.5611 16.9933 36.4687 16.1572 33.3762 16.1572C30.2723 16.1572 27.1913 16.9933 24.4538 18.5854L24.2248 18.7228L22.2318 20.3836L23.5834 18.4709L21.2125 17.6118C19.6777 17.0506 18.0284 17.3484 16.7799 18.3907C15.5315 19.4444 14.9474 21.025 15.2337 22.6285Z" fill="#EBD5BD"/>
<path d="M50.0881 22.8118L48.9427 27.1413L48.9198 27.2329L48.6335 26.8779C48.3013 26.3624 47.7516 25.618 47.0071 24.8391L43.0098 19.8224L43.6855 19.5361L45.06 18.952C47.6714 17.8524 50.4775 20.0057 50.0881 22.8118Z" fill="#E8798E"/>
<path d="M23.6643 19.8332L23.103 20.5319L19.3806 25.205C19.0943 25.5257 18.8538 25.8349 18.6361 26.1098C18.5445 26.2358 18.4643 26.3503 18.3842 26.4649L17.7542 27.2437L16.5745 22.8226C16.1851 20.0279 18.9912 17.8632 21.5912 18.9628L23 19.5583L23.6643 19.8332Z" fill="#E8798E"/>
<path opacity="0.15" d="M22.3466 21.5518L19.3801 25.2055C19.0937 25.5262 18.8532 25.8355 18.6356 26.1103L18.1889 24.4381C18.0285 23.3157 17.6391 21.632 18.292 20.876C19.2541 19.788 20.8232 20.9677 22.3466 21.5518Z" fill="#161616"/>
<path opacity="0.15" d="M44.498 21.5518L47.4645 25.2055C47.7509 25.5262 47.9914 25.8355 48.209 26.1103L48.6557 24.4381C48.8161 23.3157 49.2055 21.632 48.5526 20.876C47.5905 19.788 46.0214 20.9677 44.498 21.5518Z" fill="#161616"/>
<path d="M49.0333 27.5411C49.0333 27.5411 48.8959 27.2777 48.6325 26.8653C48.3003 26.3499 47.7505 25.6055 47.0061 24.8266C44.6695 22.387 40.3515 19.661 34.2124 23.0398C33.8917 23.2116 32.8609 23.2231 32.5173 23.0398C26.0689 19.5007 21.6363 22.6733 19.3914 25.1817C18.9905 25.6398 18.6469 26.0751 18.395 26.4416C17.9368 27.0944 17.6963 27.5411 17.6963 27.5411C17.6963 27.5411 17.7077 27.438 17.765 27.2204C17.9826 26.4301 18.876 24.1394 22.2205 20.3597C22.461 20.0848 22.7359 19.8099 23.0222 19.5465C26.0574 16.6945 31.1657 14.4267 33.2159 16.1333C33.2617 16.1791 33.319 16.225 33.3648 16.2822C33.4106 16.225 33.4679 16.1677 33.5252 16.1219C35.5754 14.4267 40.6608 16.6716 43.7074 19.5236C43.9938 19.7985 44.2686 20.0734 44.5206 20.3597C47.7505 24.0019 48.6897 26.2698 48.9532 27.1288C49.0219 27.4151 49.0333 27.5411 49.0333 27.5411Z" fill="#A99282"/>
<path d="M44.0058 29.9581C41.3714 27.8048 39.1265 29.0189 33.3654 29.8092C27.6042 29.0189 25.3593 27.8048 22.725 29.9581C18.8307 33.1422 20.4113 39.4531 23.7329 41.0452C26.7681 42.4884 22.8051 37.2541 33.3654 35.3184C43.9256 37.2541 39.9626 42.4998 42.9978 41.0452C46.3308 39.4531 47.9114 33.1422 44.0058 29.9581Z" fill="#AA9383"/>
<path d="M32.8383 38.8009C32.1396 38.9498 30.8683 39.4766 30.811 40.3242C30.7423 41.2405 32.1396 42.1568 33.3652 42.214C34.3044 42.2599 35.6559 41.8361 35.8621 40.8854C36.0453 40.0608 35.2779 39.3392 35.1978 39.2705C34.3387 38.4802 33.1361 38.7322 32.8383 38.8009Z" fill="#E8798E"/>
<path d="M50.6717 17.5083C49.1025 16.1912 47.0294 15.8247 45.1052 16.5233L42.6198 17.4282C39.7679 15.8361 36.5723 15 33.3653 15C30.1583 15 26.9513 15.8476 24.1108 17.4396L21.591 16.5233C19.6668 15.8247 17.5937 16.1912 16.0245 17.5083C14.4554 18.8255 13.7338 20.807 14.0889 22.8228L15.406 29.7637C15.2801 30.8518 15.2686 31.9399 15.3946 33.028C15.7726 36.5557 16.9523 39.7054 18.8994 42.3627C20.4571 44.493 22.4958 46.3256 24.9698 47.7917C29.1733 50.2886 33.1133 50.907 33.2737 50.93L33.3538 50.9414L33.434 50.93C33.5944 50.907 37.5115 50.2886 41.6921 47.7917C44.1546 46.3141 46.2048 44.493 47.7625 42.3627C49.721 39.694 50.9122 36.5557 51.3245 33.028C51.462 31.8826 51.4505 30.7258 51.3131 29.5919L52.5959 22.8114C52.9624 20.807 52.2408 18.8255 50.6717 17.5083ZM51.4849 22.6166L50.1677 29.569L50.1792 29.6606C50.3166 30.7373 50.3281 31.8253 50.2021 32.9134C49.5034 38.9495 46.4682 43.6226 41.1537 46.8067C37.4886 49.0057 33.9494 49.693 33.3653 49.8075C32.7697 49.7044 29.2076 49.0057 25.531 46.8067C20.2051 43.6226 17.1813 38.9495 16.5399 32.9134C16.4254 31.8826 16.4369 30.8403 16.5629 29.8095L15.2228 22.6166C14.9364 21.0131 15.5206 19.4325 16.769 18.3788C18.0175 17.3365 19.6782 17.0387 21.2016 17.6L23.5725 18.459L22.2209 20.3832L24.2139 18.6995L24.4429 18.5621C27.1803 16.9815 30.2614 16.1454 33.3653 16.1454C36.4578 16.1454 39.5388 16.9815 42.2876 18.5621L42.5167 18.6881L44.5211 20.3717L43.1696 18.459L45.5176 17.6C47.0523 17.0387 48.7017 17.3365 49.9501 18.3788C51.1871 19.4325 51.7598 21.0131 51.4849 22.6166Z" fill="black"/>
<path d="M33.3649 42.9582L33.2046 42.9124C32.2883 42.6375 30.1465 41.8701 30.1465 40.6102C30.1465 39.3045 31.5553 38.2852 33.3649 38.2852C35.1746 38.2852 36.5834 39.3045 36.5834 40.6102C36.5834 41.8701 34.4416 42.6375 33.5253 42.9124L33.3649 42.9582ZM33.3649 39.4191C32.1394 39.4191 31.2918 40.0376 31.2918 40.5988C31.3377 40.8393 32.2539 41.4005 33.3649 41.7556C34.4759 41.4005 35.3922 40.8508 35.4381 40.5988C35.4381 40.0376 34.579 39.4191 33.3649 39.4191Z" fill="black"/>
<path d="M25.1754 34.9633C25.164 35.0779 25.141 35.1809 25.1181 35.284C24.9349 35.8567 24.3966 36.2805 23.7552 36.2805H23.171C22.2433 36.2805 21.5675 35.41 21.7851 34.5166L22.2318 32.6955C22.3922 32.0541 22.9649 31.6074 23.6177 31.6074C23.9957 31.6074 24.3393 31.7563 24.5913 31.9854C24.6371 32.0198 24.6714 32.0656 24.7058 32.1114C24.9005 32.3405 25.0151 32.6153 25.038 32.936V32.9933V33.0162L25.0838 33.7034L25.0952 33.818L25.164 34.7572C25.1869 34.8259 25.1869 34.8946 25.1754 34.9633Z" fill="black"/>
<path d="M42.9408 36.2805H43.5249C44.4526 36.2805 45.1284 35.41 44.9108 34.5166L44.4641 32.6955C44.3037 32.0541 43.7311 31.6074 43.0782 31.6074C42.3337 31.6074 41.7038 32.1801 41.658 32.936L41.5205 34.7572C41.4518 35.5818 42.1161 36.2805 42.9408 36.2805Z" fill="black"/>
<path d="M33.3766 42.9355C33.0674 43.3822 32.7352 43.806 32.3229 44.184C32.1053 44.3672 31.8876 44.539 31.6357 44.6765C31.3837 44.8139 31.1088 44.917 30.8225 44.9743C30.5361 45.0201 30.2383 45.0086 29.9634 44.9399C29.6886 44.8712 29.4366 44.7566 29.219 44.6192C28.7723 44.3329 28.4172 43.9434 28.1309 43.5311C28.4859 43.8976 28.8983 44.1954 29.3449 44.3672C29.574 44.4588 29.8031 44.5161 30.0207 44.5276C30.2498 44.539 30.4674 44.5047 30.6736 44.4245C31.0744 44.2756 31.4066 43.9663 31.6815 43.5998C31.9564 43.2333 32.174 42.821 32.3687 42.3857L33.3766 42.9355Z" fill="black"/>
<path d="M34.3614 42.3857C34.5561 42.821 34.7738 43.2333 35.0487 43.5998C35.3235 43.9549 35.6557 44.2641 36.0566 44.4245C36.2627 44.5047 36.4804 44.539 36.7094 44.5276C36.9385 44.5161 37.1676 44.4588 37.3852 44.3672C37.8319 44.184 38.2442 43.8862 38.5993 43.5311C38.3244 43.9549 37.9579 44.3329 37.5112 44.6192C37.2821 44.7681 37.0416 44.8826 36.7667 44.9399C36.4918 45.0086 36.2055 45.0201 35.9077 44.9743C35.6213 44.9284 35.3464 44.8139 35.0945 44.6765C34.8425 44.539 34.6249 44.3672 34.4072 44.184C33.9949 43.806 33.6513 43.3822 33.3535 42.9355L34.3614 42.3857Z" fill="black"/>
<path d="M23.6645 33.9442C23.9112 33.9442 24.1112 33.7442 24.1112 33.4975C24.1112 33.2508 23.9112 33.0508 23.6645 33.0508C23.4178 33.0508 23.2178 33.2508 23.2178 33.4975C23.2178 33.7442 23.4178 33.9442 23.6645 33.9442Z" fill="white"/>
<path d="M43.2387 33.9442C43.4854 33.9442 43.6854 33.7442 43.6854 33.4975C43.6854 33.2508 43.4854 33.0508 43.2387 33.0508C42.992 33.0508 42.792 33.2508 42.792 33.4975C42.792 33.7442 42.992 33.9442 43.2387 33.9442Z" fill="white"/>
<defs>
<linearGradient id="paint0_linear_1332_3830" x1="33.3909" y1="0" x2="33.3909" y2="65.4653" gradientUnits="userSpaceOnUse">
<stop offset="0.0295137" stop-color="#F6D79D"/>
<stop offset="1" stop-color="#F6D79D"/>
</linearGradient>
</defs>
</svg>
