<svg width="141" height="35" viewBox="0 0 141 35" fill="none" xmlns="http://www.w3.org/2000/svg">
<g clip-path="url(#clip0_1332_4214)">
<path opacity="0.96" d="M27.2509 28.7984V7.03035C27.2509 6.74534 27.1503 6.4722 26.9826 6.27031C26.9267 6.19906 26.8708 6.13968 26.8149 6.06843C24.2441 3.08764 19.8736 0.997521 15.9726 0.26123L9.35547 15.7708C16.8221 16.329 22.8357 21.9106 27.2509 28.7984Z" fill="#F6D79D"/>
<g opacity="0.96">
<path d="M24.6132 31.3042L27.2511 34.0119C21.8299 21.0437 12.6643 18.2529 8.13733 18.051C7.44431 18.0154 6.87425 18.051 6.42715 18.1104L7.83553 15.1058L14.8663 0.0712539C14.4862 0.0475026 12.6307 0 12.5525 0C11.7701 0.0593783 11.0659 0.534405 10.697 1.25882L0 22.065L2.05669 22.0056C2.86148 21.9818 3.67744 21.9937 4.47106 22.0412L2.72735 25.7702C2.72735 25.7702 6.00239 24.6064 11.5018 24.7845C11.5018 24.7845 9.44511 24.0838 5.36527 24.2263L6.28184 22.1837C13.1337 22.9913 19.5944 26.1621 24.6132 31.3042Z" fill="#F6D79D"/>
</g>
<path opacity="0.96" d="M28.749 28.7984V7.03035C28.749 6.74534 28.8496 6.4722 29.0173 6.27031C29.0732 6.19906 29.1291 6.13968 29.185 6.06843C31.7558 3.08764 36.1263 0.997521 40.0273 0.26123L46.6444 15.7827C39.1889 16.329 33.1642 21.9106 28.749 28.7984Z" fill="#F6D79D"/>
<g opacity="0.96">
<path d="M31.3869 31.3042L28.749 34.0119C34.1702 21.0437 43.347 18.2529 47.8628 18.051C48.5558 18.0154 49.1259 18.051 49.573 18.1104L48.1758 15.1177L41.1339 0.0712539C41.5251 0.0475026 43.3806 0 43.4476 0C44.2301 0.0593783 44.9342 0.534405 45.3031 1.25882L56.0001 22.065L53.9434 22.0056C53.1386 21.9818 52.3227 21.9937 51.5291 22.0412L53.284 25.7702C53.284 25.7702 50.0089 24.6064 44.5095 24.7845C44.5095 24.7845 46.5662 24.0838 50.646 24.2263L49.7295 22.1837C42.8664 22.9913 36.4057 26.1621 31.3869 31.3042Z" fill="#F6D79D"/>
</g>
</g>
<path d="M77.8504 12.962L77.793 11.715C77.487 12.244 76.9961 12.6597 76.3203 12.962C75.6444 13.2518 74.8666 13.3966 73.9868 13.3966C73.1069 13.3966 72.31 13.214 71.5959 12.8487C70.8946 12.4708 70.2889 11.9732 69.7788 11.3559C69.2815 10.7261 68.899 10.0081 68.6312 9.20191C68.3634 8.38312 68.2295 7.53914 68.2295 6.66997C68.2295 5.75041 68.3634 4.88753 68.6312 4.08134C68.899 3.26255 69.2943 2.55084 69.8171 1.94619C70.3399 1.34155 70.9902 0.869174 71.768 0.529062C72.5459 0.176354 73.4512 0 74.4841 0C75.2364 0 75.9377 0.107072 76.588 0.321217C77.2511 0.535361 77.8249 0.831384 78.3095 1.20929C78.8068 1.58719 79.2021 2.04067 79.4954 2.56973C79.8014 3.0862 79.9799 3.65935 80.0309 4.28919H77.3531C77.3149 3.99946 77.2129 3.72863 77.0471 3.4767C76.8813 3.21217 76.6709 2.98542 76.4159 2.79647C76.1609 2.60752 75.8612 2.45636 75.5169 2.34299C75.1854 2.22962 74.8411 2.17294 74.4841 2.17294C73.413 2.17294 72.5522 2.56973 71.9019 3.36333C71.2643 4.14432 70.9456 5.28433 70.9456 6.78334C70.9456 7.2998 71.0093 7.82257 71.1368 8.35163C71.2771 8.8681 71.4875 9.34047 71.768 9.76876C72.0613 10.1845 72.4311 10.5246 72.8774 10.7891C73.3237 11.0536 73.8529 11.1859 74.4649 11.1859C74.8985 11.1859 75.3002 11.1103 75.6699 10.9592C76.0525 10.808 76.384 10.6001 76.6646 10.3356C76.9451 10.0711 77.1619 9.76876 77.3149 9.42865C77.4806 9.07594 77.5635 8.70434 77.5635 8.31384H74.7518V6.21648H80.05V12.962H77.8504Z" fill="white"/>
<path d="M87.2266 7.40688C87.2138 7.06676 87.1501 6.77074 87.0353 6.51881C86.9333 6.25427 86.793 6.04013 86.6145 5.87637C86.436 5.70002 86.232 5.57405 86.0024 5.49847C85.7729 5.41029 85.537 5.3662 85.2947 5.3662C84.7974 5.3662 84.3639 5.54886 83.9941 5.91416C83.6371 6.26687 83.433 6.76444 83.382 7.40688H87.2266ZM83.3055 8.95627C83.3438 9.66169 83.5478 10.2222 83.9176 10.6379C84.3001 11.0536 84.7974 11.2615 85.4095 11.2615C85.8175 11.2615 86.1746 11.1733 86.4806 10.9969C86.7994 10.808 87.0034 10.5498 87.0927 10.2222H89.6557C89.3624 11.1796 88.8524 11.9165 88.1255 12.433C87.3987 12.9494 86.5316 13.2077 85.5243 13.2077C82.3874 13.2077 80.819 11.5197 80.819 8.14378C80.819 7.42577 80.921 6.77704 81.125 6.19759C81.3291 5.61814 81.6223 5.12057 82.0049 4.70488C82.4002 4.28918 82.8783 3.97427 83.4394 3.76012C84.0005 3.53338 84.6444 3.42001 85.3712 3.42001C86.8249 3.42001 87.9215 3.87979 88.6611 4.79935C89.4134 5.71891 89.7896 7.10455 89.7896 8.95627H83.3055Z" fill="white"/>
<path d="M96.674 12.962V7.33129C96.674 6.61328 96.5528 6.12831 96.3106 5.87637C96.0683 5.62444 95.6539 5.49847 95.0673 5.49847C93.7794 5.49847 93.1355 6.21019 93.1355 7.63362V12.962H90.649V3.66565H93.0207V5.02609C93.314 4.49703 93.7029 4.10023 94.1875 3.8357C94.672 3.55858 95.2968 3.42001 96.0619 3.42001C96.5082 3.42001 96.9226 3.48929 97.3052 3.62786C97.6877 3.75382 98.0129 3.94907 98.2806 4.2136C98.5612 4.47814 98.778 4.80565 98.931 5.19615C99.0967 5.57405 99.1796 6.01494 99.1796 6.51881V12.962H96.674Z" fill="white"/>
<path d="M105.93 6.48102C105.866 6.02753 105.701 5.71262 105.433 5.53626C105.165 5.34731 104.744 5.25283 104.17 5.25283C103.699 5.25283 103.335 5.31582 103.08 5.44179C102.825 5.55516 102.698 5.75041 102.698 6.02753C102.698 6.30466 102.825 6.51881 103.08 6.66997C103.335 6.80853 103.718 6.94709 104.228 7.08566C104.763 7.23682 105.273 7.37538 105.758 7.50135C106.243 7.61472 106.67 7.74069 107.039 7.87925C107.537 8.0808 107.919 8.35793 108.187 8.71064C108.455 9.05075 108.589 9.52312 108.589 10.1278C108.589 11.0977 108.238 11.8535 107.537 12.3952C106.848 12.9368 105.828 13.2077 104.476 13.2077C103.023 13.2077 101.907 12.9053 101.129 12.3007C100.364 11.6961 99.9689 10.9214 99.9434 9.97661H102.506C102.506 10.4175 102.679 10.7576 103.023 10.9969C103.367 11.2363 103.845 11.3559 104.457 11.3559C104.904 11.3559 105.293 11.2867 105.624 11.1481C105.956 10.9969 106.121 10.745 106.121 10.3923C106.121 10.0648 105.968 9.83174 105.662 9.69318C105.369 9.55462 105.018 9.43495 104.61 9.33417C103.82 9.14522 103.182 8.97517 102.698 8.82401C102.213 8.67285 101.805 8.49019 101.474 8.27605C101.027 7.99892 100.715 7.684 100.536 7.33129C100.371 6.97859 100.288 6.59439 100.288 6.17869C100.288 5.7882 100.358 5.42289 100.498 5.08278C100.638 4.74267 100.868 4.45294 101.187 4.2136C101.505 3.96167 101.913 3.76642 102.411 3.62786C102.921 3.48929 103.533 3.42001 104.247 3.42001C105.611 3.42001 106.612 3.67824 107.25 4.19471C107.9 4.71118 108.257 5.47328 108.321 6.48102H105.93Z" fill="white"/>
<path d="M115.315 12.962V7.19903C115.315 6.49361 115.188 6.01494 114.933 5.763C114.691 5.49847 114.283 5.3662 113.709 5.3662C113.403 5.3662 113.129 5.42919 112.886 5.55516C112.644 5.66853 112.44 5.83228 112.274 6.04643C112.108 6.24798 111.981 6.48731 111.892 6.76444C111.815 7.02897 111.777 7.3187 111.777 7.63362V12.962H109.29V0.264531H111.777V4.87493C111.866 4.67338 112 4.48443 112.179 4.30808C112.37 4.11913 112.587 3.96167 112.829 3.8357C113.071 3.70974 113.339 3.60896 113.632 3.53338C113.925 3.4578 114.232 3.42001 114.55 3.42001C115.519 3.42001 116.304 3.68454 116.903 4.2136C117.515 4.73007 117.821 5.45438 117.821 6.38654V12.962H115.315Z" fill="white"/>
<path d="M118.967 12.962V3.66565H121.454V12.962H118.967ZM118.967 2.55084V0.264531H121.454V2.55084H118.967Z" fill="white"/>
<path d="M128.615 12.962V7.33129C128.615 6.61328 128.494 6.12831 128.251 5.87637C128.009 5.62444 127.595 5.49847 127.008 5.49847C125.72 5.49847 125.076 6.21019 125.076 7.63362V12.962H122.59V3.66565H124.961V5.02609C125.255 4.49703 125.644 4.10023 126.128 3.8357C126.613 3.55858 127.237 3.42001 128.003 3.42001C128.449 3.42001 128.863 3.48929 129.246 3.62786C129.628 3.75382 129.954 3.94907 130.221 4.2136C130.502 4.47814 130.719 4.80565 130.872 5.19615C131.037 5.57405 131.12 6.01494 131.12 6.51881V12.962H128.615Z" fill="white"/>
<path d="M74.0441 20.8665H74.025L72.3992 25.8548H75.6317L74.0441 20.8665ZM77.2001 30.5974L76.3968 28.0088H71.7106L70.8117 30.5974H68L72.5331 18.0511H75.6126L80.0883 30.5974H77.2001Z" fill="white"/>
<path d="M88.438 27.2341C88.3742 27.7758 88.2148 28.267 87.9598 28.7079C87.7175 29.1488 87.4051 29.5267 87.0226 29.8416C86.64 30.1566 86.2001 30.4022 85.7028 30.5786C85.2183 30.7549 84.6891 30.8431 84.1153 30.8431C83.4777 30.8431 82.8911 30.7423 82.3556 30.5408C81.8328 30.3266 81.3801 30.0117 80.9976 29.596C80.615 29.1677 80.3154 28.645 80.0986 28.0277C79.8946 27.3979 79.7926 26.6673 79.7926 25.8359C79.7926 25.0045 79.8946 24.2865 80.0986 23.6818C80.3154 23.0772 80.615 22.5859 80.9976 22.208C81.3801 21.8175 81.8392 21.5278 82.3747 21.3389C82.923 21.1499 83.5287 21.0554 84.1918 21.0554C84.8039 21.0554 85.3585 21.1373 85.8558 21.3011C86.3659 21.4648 86.8058 21.7042 87.1756 22.0191C87.5581 22.334 87.8578 22.7119 88.0746 23.1528C88.2913 23.5937 88.4189 24.0849 88.4571 24.6266H85.9515C85.8877 24.1479 85.6901 23.7763 85.3585 23.5118C85.0398 23.2347 84.6445 23.0961 84.1727 23.0961C83.9049 23.0961 83.6562 23.1402 83.4267 23.2284C83.1972 23.3165 82.9932 23.4677 82.8146 23.6818C82.6489 23.8834 82.515 24.1605 82.413 24.5132C82.311 24.8533 82.26 25.2753 82.26 25.7792C82.26 26.7995 82.4449 27.5553 82.8146 28.0466C83.1844 28.5379 83.6116 28.7835 84.0962 28.7835C84.5807 28.7835 84.9951 28.6513 85.3394 28.3867C85.6837 28.1222 85.8813 27.738 85.9324 27.2341H88.438Z" fill="white"/>
<path d="M94.8923 26.0437C94.7648 26.1697 94.5799 26.2705 94.3376 26.3461C94.0954 26.4216 93.7447 26.5035 93.2857 26.5917C92.5716 26.7302 92.0806 26.9066 91.8129 27.1207C91.5451 27.3349 91.4112 27.6435 91.4112 28.0466C91.4112 28.7394 91.8129 29.0858 92.6162 29.0858C92.935 29.0858 93.2283 29.0354 93.496 28.9347C93.7766 28.8213 94.0125 28.6764 94.2037 28.5001C94.4078 28.3111 94.5672 28.097 94.6819 27.8577C94.8094 27.6057 94.8732 27.3412 94.8732 27.0641L94.8923 26.0437ZM95.0645 30.5974C94.988 30.3581 94.937 30.081 94.9114 29.7661C94.6182 30.0936 94.2293 30.3581 93.7447 30.5597C93.2601 30.7486 92.6991 30.8431 92.0615 30.8431C90.9777 30.8431 90.1807 30.61 89.6706 30.144C89.1733 29.6653 88.9247 29.048 88.9247 28.2922C88.9247 27.6246 89.0331 27.0956 89.2498 26.7051C89.4666 26.302 89.7663 25.987 90.1488 25.7603C90.5314 25.5336 90.984 25.3698 91.5068 25.269C92.0424 25.1557 92.6226 25.0549 93.2474 24.9667C93.8722 24.8785 94.293 24.7652 94.5098 24.6266C94.7266 24.4754 94.8349 24.2361 94.8349 23.9086C94.8349 23.6063 94.6883 23.3732 94.395 23.2095C94.1145 23.0331 93.7319 22.9449 93.2474 22.9449C92.6736 22.9449 92.2592 23.0709 92.0041 23.3228C91.7619 23.5748 91.6088 23.9086 91.5451 24.3243H89.2307C89.2435 23.8456 89.32 23.4047 89.4602 23.0016C89.6133 22.5985 89.8492 22.2521 90.1679 21.9624C90.4995 21.6727 90.9266 21.4522 91.4495 21.3011C91.9723 21.1373 92.6098 21.0554 93.3622 21.0554C94.1017 21.0554 94.7266 21.1373 95.2366 21.3011C95.7594 21.4648 96.1738 21.7042 96.4799 22.0191C96.7987 22.3214 97.0282 22.7056 97.1684 23.1717C97.3087 23.6252 97.3788 24.1416 97.3788 24.7211V30.5974H95.0645Z" fill="white"/>
<path d="M102.932 28.8402C103.531 28.8402 104.029 28.5946 104.424 28.1033C104.832 27.612 105.036 26.9696 105.036 26.176C105.036 24.1605 104.341 23.1528 102.951 23.1528C101.523 23.1528 100.809 24.1101 100.809 26.0248C100.809 26.8562 101.007 27.5364 101.402 28.0655C101.797 28.582 102.307 28.8402 102.932 28.8402ZM104.998 30.5974L104.979 29.4637C104.405 30.3833 103.531 30.8431 102.358 30.8431C101.759 30.8431 101.211 30.7297 100.713 30.503C100.216 30.2762 99.7887 29.9487 99.4317 29.5204C99.0747 29.0921 98.7941 28.5694 98.5901 27.9521C98.3861 27.3349 98.2841 26.6358 98.2841 25.8548C98.2841 25.1494 98.367 24.5069 98.5327 23.9275C98.7113 23.3354 98.9663 22.8253 99.2978 22.397C99.6294 21.9687 100.031 21.6412 100.503 21.4144C100.987 21.1751 101.536 21.0554 102.148 21.0554C103.308 21.0554 104.239 21.5404 104.94 22.5103V17.8999H107.389V30.5974H104.998Z" fill="white"/>
<path d="M114.684 25.0423C114.672 24.7022 114.608 24.4062 114.493 24.1542C114.391 23.8897 114.251 23.6755 114.072 23.5118C113.894 23.3354 113.69 23.2095 113.46 23.1339C113.231 23.0457 112.995 23.0016 112.752 23.0016C112.255 23.0016 111.822 23.1843 111.452 23.5496C111.095 23.9023 110.891 24.3999 110.84 25.0423H114.684ZM110.763 26.5917C110.802 27.2971 111.006 27.8577 111.375 28.2733C111.758 28.689 112.255 28.8969 112.867 28.8969C113.275 28.8969 113.632 28.8087 113.938 28.6324C114.257 28.4434 114.461 28.1852 114.55 27.8577H117.113C116.82 28.815 116.31 29.5519 115.583 30.0684C114.856 30.5848 113.989 30.8431 112.982 30.8431C109.845 30.8431 108.277 29.1551 108.277 25.7792C108.277 25.0612 108.379 24.4125 108.583 23.833C108.787 23.2536 109.08 22.756 109.463 22.3403C109.858 21.9246 110.336 21.6097 110.897 21.3955C111.458 21.1688 112.102 21.0554 112.829 21.0554C114.283 21.0554 115.379 21.5152 116.119 22.4348C116.871 23.3543 117.247 24.74 117.247 26.5917H110.763Z" fill="white"/>
<path d="M129.143 30.5974V24.9667C129.143 24.3999 129.009 23.9401 128.741 23.5874C128.474 23.2347 128.117 23.0583 127.67 23.0583C127.211 23.0583 126.829 23.2473 126.523 23.6252C126.229 24.0031 126.083 24.4754 126.083 25.0423V30.5974H123.596V25.0045C123.596 24.6266 123.571 24.318 123.52 24.0786C123.469 23.8393 123.379 23.6504 123.252 23.5118C123.137 23.3732 122.984 23.2787 122.793 23.2284C122.602 23.1654 122.372 23.1339 122.104 23.1339C121.097 23.1339 120.593 23.7385 120.593 24.9478V30.5974H118.107V21.3011H120.44V22.6615C120.759 22.0443 121.142 21.6223 121.588 21.3955C122.034 21.1688 122.57 21.0554 123.195 21.0554C123.513 21.0554 123.794 21.0806 124.036 21.131C124.291 21.1814 124.514 21.2696 124.706 21.3955C124.91 21.5089 125.101 21.6601 125.279 21.849C125.458 22.038 125.636 22.2647 125.815 22.5292C126.07 22.0128 126.408 21.6412 126.829 21.4144C127.249 21.1751 127.76 21.0554 128.359 21.0554C128.831 21.0554 129.264 21.1373 129.659 21.3011C130.055 21.4522 130.393 21.6727 130.673 21.9624C130.954 22.2395 131.17 22.567 131.324 22.9449C131.489 23.3228 131.572 23.7259 131.572 24.1542V30.5974H129.143Z" fill="white"/>
<path d="M138.513 29.3693C138.335 29.785 138.01 30.1125 137.538 30.3518C137.079 30.5785 136.556 30.6919 135.97 30.6919C135.472 30.6919 135.013 30.6163 134.592 30.4652C134.172 30.3014 133.808 30.0747 133.502 29.785C133.196 29.4826 132.954 29.1299 132.775 28.7268C132.61 28.3111 132.527 27.8451 132.527 27.3286V21.3011H135.013V26.9696C135.013 28.1285 135.542 28.7079 136.601 28.7079C137.175 28.7079 137.634 28.5442 137.978 28.2167C138.335 27.8891 138.513 27.4735 138.513 26.9696V21.3011H141V30.8431C141 31.4981 140.885 32.0839 140.656 32.6003C140.439 33.1168 140.133 33.5514 139.738 33.9041C139.355 34.2568 138.896 34.5276 138.36 34.7166C137.838 34.9055 137.277 35 136.677 35C135.287 35 134.248 34.6536 133.56 33.9608C132.871 33.2679 132.527 32.3169 132.527 31.1076H134.841C134.841 31.6619 135 32.0965 135.319 32.4114C135.651 32.7263 136.142 32.8838 136.792 32.8838C137.022 32.8838 137.238 32.8334 137.442 32.7326C137.646 32.6444 137.825 32.5121 137.978 32.3358C138.144 32.172 138.271 31.9642 138.36 31.7123C138.462 31.4603 138.513 31.1832 138.513 30.8809V29.3693Z" fill="white"/>
<defs>
<clipPath id="clip0_1332_4214">
<rect width="56" height="34" fill="white"/>
</clipPath>
</defs>
</svg>
