<?xml version="1.0" standalone="no"?>
<!DOCTYPE svg PUBLIC "-//W3C//DTD SVG 1.1//EN" "http://www.w3.org/Graphics/SVG/1.1/DTD/svg11.dtd" >
<svg xmlns="http://www.w3.org/2000/svg">
<metadata>
<json>
<![CDATA[
{
	"fontFamily": "icomoon",
	"majorVersion": 1,
	"minorVersion": 0,
	"version": "Version 1.0",
	"fontId": "icomoon",
	"psName": "icomoon",
	"subFamily": "Regular",
	"fullName": "icomoon",
	"description": "Font generated by IcoMoon."
}
]]>
</json>
</metadata>
<defs>
<font id="icomoon" horiz-adv-x="1024">
<font-face units-per-em="1024" ascent="960" descent="-64" />
<missing-glyph horiz-adv-x="1024" />
<glyph unicode="&#x20;" horiz-adv-x="512" d="" />
<glyph unicode="&#xe900;" glyph-name="boosty" data-tags="boosty" horiz-adv-x="896" d="M48.678 351.279l177.114 593.478h272.19l-54.872-183.983c-0.543-1.052-1.087-2.103-1.63-3.154l-144.516-485.716h134.737c-56.502-136.147-100.509-242.861-132.020-320.134-248.828 2.63-318.37 175.053-257.521 379.009zM300.767-48.755l328.149 456.806h-139.083l121.155 292.797c207.54-21.027 305.332-179.252 247.739-370.595-61.389-205.536-310.218-379.008-552.527-379.008-2.173 0-3.804 0-5.433 0z" />
<glyph unicode="&#xe901;" glyph-name="clock" data-tags="clock" d="M1024 448c0-282.772-229.228-512-512-512-282.77 0-512 229.228-512 512 0 282.77 229.23 512 512 512 282.772 0 512-229.23 512-512zM540.444 789.333c0 15.709-12.735 28.444-28.444 28.444s-28.444-12.735-28.444-28.444v-341.333c0-10.774 6.087-20.623 15.724-25.441l227.556-113.777c14.052-7.026 31.135-1.331 38.161 12.72s1.331 31.135-12.72 38.161l-211.831 105.917v323.754z" />
<glyph unicode="&#xe902;" glyph-name="ATK" data-tags="ATK" d="M528.042 849.34l112.162-112.162 131.621 131.482-1.777 76.322c0.139 4.033 1.843 7.853 4.747 10.655s6.78 4.367 10.818 4.364h150.184c2.055 0 4.081-0.405 5.976-1.191s3.613-1.939 5.054-3.392c1.448-1.453 2.597-3.176 3.372-5.073s1.178-3.928 1.163-5.977c-8.258-181.589 37.961-167.731-91.268-163.84l-131.962-131.414 112.228-112.367c2.911-2.918 4.549-6.87 4.549-10.99s-1.638-8.074-4.549-10.991c-79.667-82.466-52.904-61.918-129.158 7.236l-488.175-487.902c-5.645-5.764-13.304-9.114-21.367-9.355-66.762-10.086-134.145-15.514-201.66-16.245 0.702 67.496 6.131 134.853 16.247 201.589 0.016 4.052 0.833 8.068 2.402 11.805s3.862 7.125 6.745 9.974l487.834 488.311-57.207 57.276c-2.914 2.929-4.55 6.893-4.55 11.025s1.636 8.095 4.55 11.025l49.971 49.835c2.918 2.91 6.87 4.544 10.99 4.544s8.074-1.634 10.991-4.544h0.068z" />
<glyph unicode="&#xe903;" glyph-name="ATK_P" data-tags="ATK_P" d="M787.112 957.856c-4.052 0.039-7.951-1.501-10.884-4.292s-4.659-6.614-4.82-10.659l1.777-76.254-131.621-131.618-112.23 112.162c-2.918 2.91-6.87 4.544-10.991 4.544s-8.073-1.634-10.991-4.544l-49.834-49.834c-2.914-2.929-4.549-6.894-4.549-11.026s1.635-8.095 4.549-11.025l57.139-57.207-487.834-488.38c-2.896-2.842-5.2-6.229-6.782-9.966s-2.409-7.753-2.434-11.813c-10.093-66.736-15.5-134.1-16.179-201.589 67.517 0.753 134.899 6.203 201.66 16.318 8.030 0.234 15.66 3.562 21.299 9.282l211.354 211.217c-2.954 5.734-5.62 11.613-7.987 17.613l-0.137 0.41-0.137 0.682c-8.613 23.381-12.915 48.129-12.697 73.046 0 24.030 3.822 47.991 12.424 70.997l0.41 2.185 0.137 0.273c8.192 21.573 20.206 42.189 37.069 59.734s37.546 30.993 59.87 39.731c22.003 8.85 45.507 13.369 69.222 13.312 33.227 0.124 65.879-8.669 94.55-25.463l24.098 24.166c12.493-11.333 21.778-21.026 29.626-29.491 2.706 2.97 5.749 5.606 9.084 7.85 14.541 9.994 31.773 15.348 49.423 15.36h41.779c2.538 2.975 3.862 6.799 3.716 10.707-0.154 3.909-1.77 7.617-4.535 10.387l-112.162 112.367 131.889 131.482c129.229-3.891 83.083-17.75 91.341 163.84-0.015 4.116-1.66 8.058-4.579 10.962s-6.868 4.535-10.986 4.535h-150.045zM800.827 435.062h105.604c4.374-1.502 6.012-4.050 4.915-7.646-171.301-238.43-272.564-377.079-303.784-415.947-1.821-3.964-5.644-5.573-11.469-4.849h-67.448c-8.010 0-12.743 2.187-14.199 6.554 176.765 236.659 271.314 366.752 283.646 390.282 1.821 2.959 2.736 6.212 2.736 9.762 0 4.051-2.37 9.671-7.102 16.862 0.775 3.322 3.138 4.983 7.102 4.983v0zM493.214 334.779c0 17.021 2.549 32.108 7.646 45.261 5.097 13.38 11.992 24.621 20.685 33.723 9.057 9.467 19.751 16.521 32.085 21.163 12.288 5.097 25.714 7.646 40.278 7.646 14.882 0 28.513-2.526 40.892-7.578 12.333-4.733 22.869-11.833 31.607-21.299 9.011-9.102 16.065-20.343 21.162-33.724 5.097-13.016 7.646-28.080 7.646-45.192 0-16.703-2.549-31.789-7.646-45.261-5.097-13.017-12.197-24.258-21.299-33.724-8.647-9.057-19.137-16.111-31.47-21.162-12.379-4.779-25.987-7.172-40.824-7.172-14.563 0-27.989 2.37-40.277 7.103-12.379 5.097-23.097 12.197-32.154 21.299-8.693 9.467-15.587 20.708-20.685 33.724-5.097 13.426-7.646 28.513-7.646 45.261v-0.068zM634.253 334.779c0 11.605-1.092 21.959-3.277 31.061-1.821 9.057-4.551 16.658-8.192 22.802-3.231 6.508-7.395 11.423-12.493 14.746-5.097 3.641-10.558 5.461-16.384 5.461-6.099 0-11.696-1.797-16.794-5.393-4.733-3.322-8.92-8.26-12.561-14.814-3.277-6.144-6.008-13.744-8.192-22.802-1.821-9.102-2.731-19.456-2.731-31.061s0.911-21.959 2.731-31.062c2.184-9.057 4.915-16.839 8.192-23.347 3.55-6.508 7.691-11.423 12.424-14.746 5.189-3.231 10.809-4.847 16.862-4.847 5.917 0 11.377 1.616 16.384 4.847s9.193 8.147 12.561 14.746c3.641 6.508 6.371 14.291 8.192 23.347 2.185 9.103 3.277 19.456 3.277 31.062v0zM752.355 129.499c0 17.115 2.545 32.197 7.643 45.261 5.098 13.378 11.995 24.62 20.685 33.726 9.062 9.465 19.756 16.567 32.088 21.298 12.376 5.007 25.805 7.51 40.28 7.51 14.877 0 28.511-2.526 40.887-7.578 12.339-4.736 22.872-11.831 31.612-21.303 9.011-9.099 16.106-20.341 21.299-33.719 5.003-13.019 7.504-28.080 7.504-45.195 0-16.699-2.545-31.766-7.643-45.195-5.098-13.012-12.2-24.254-21.299-33.719-8.645-9.106-19.134-16.201-31.473-21.299-12.376-4.732-25.988-7.102-40.821-7.102-14.519 0-27.941 2.37-40.28 7.102-12.376 5.098-23.091 12.193-32.154 21.299-8.689 9.465-15.587 20.707-20.685 33.719-5.098 13.429-7.643 28.518-7.643 45.261v-0.066zM893.396 131.204c0 11.608-1.097 21.965-3.277 31.064-1.821 9.055-4.557 16.655-8.192 22.799-3.233 6.51-7.395 11.425-12.493 14.746-4.732 3.599-10.196 5.398-16.384 5.398-5.786 0-11.198-1.821-16.252-5.464-5.098-3.277-9.465-8.17-13.107-14.68-3.277-6.144-6.005-13.787-8.192-22.938-1.821-9.011-2.728-19.361-2.728-31.056 0-11.564 0.907-21.87 2.728-30.925 2.187-9.106 4.915-16.911 8.192-23.42 3.643-6.502 8.009-11.396 13.107-14.672 5.054-3.321 10.496-4.988 16.318-4.988 6.144 0 11.586 1.668 16.318 4.988 5.098 3.277 9.26 8.17 12.493 14.672 3.635 6.51 6.371 14.314 8.192 23.42 2.18 9.055 3.277 19.412 3.277 31.056v0z" />
<glyph unicode="&#xe904;" d="M0 4.264l238.934 530.025-104.243 325.769 360.584-138.991 460.461 238.934-238.936-495.274 104.243-325.769-325.769 104.243-495.274-238.936z" />
<glyph unicode="&#xe905;" d="M480.99 947.003c-79.461 0.384-157.673-19.769-227.054-58.504l246.647-95.027 193.604 100.489c-65.643 34.899-138.854 53.137-213.197 53.112v-0.068zM102.588 750.19c-53.355-77.848-81.76-170.089-81.442-264.465 0-63.147 12.902-123.426 36.113-178.313l109.295 242.688-63.966 200.022v0.068zM896.527 682.060l-107.242-222.549 73.45-229.445c44.376 65.928 70.832 142.267 76.763 221.515 5.939 79.247-8.843 158.676-42.898 230.479h-0.073zM500.582 170.811l-212.31-102.4c58.71-27.238 124.041-42.533 192.717-42.533 90.658 0 175.241 26.624 246.648 72.294l-227.055 72.638z" />
<glyph unicode="&#xe906;" d="M426.359 736.889c1.638 7.414 8.212 12.691 15.804 12.691 20.912 0 40.876-0.006 60.428-0.010 39.412-0.008 77.152-0.018 117.61 0.008 4.803 0.004 9.318-2.107 12.392-5.712 2.533-2.97 3.318-6.033 3.596-7.416 0.541-2.703 0.262-4.948 0.188-5.54l-0.002-0.025c-0.205-1.651-0.623-3.189-0.874-4.076-0.59-2.081-1.542-4.897-2.798-8.393-2.56-7.129-6.894-18.498-13.605-35.65-12.37-31.615-33.028-83.405-66.097-165.761h137.918c4.534 0 9.282-1.931 12.577-5.964 2.699-3.305 3.338-6.711 3.531-8.182 0.373-2.83-0.111-5.108-0.221-5.63l-0.008-0.041c-0.319-1.507-0.803-2.785-0.995-3.291-0.508-1.327-1.208-2.884-1.921-4.407-1.487-3.178-3.715-7.655-6.511-13.128-5.62-11.006-13.842-26.644-23.775-45.31-19.88-37.36-46.768-87.138-73.767-136.878-27.005-49.748-54.141-99.492-74.525-136.798-10.191-18.653-18.696-34.198-24.654-45.079-2.978-5.442-5.319-9.716-6.916-12.632l-2.447-4.467c0 0-0.002-0.004-14.197 7.776l14.197-7.776c-3.734-6.81-11.778-10.013-19.169-7.629-7.389 2.386-12.044 9.683-11.092 17.392l36.090 291.924h-124.811c-4.868 0-9.48 2.191-12.552 5.968-3.074 3.777-4.284 8.737-3.297 13.505 7.266 35.041 24.752 115.227 40.399 186.538 7.83 35.682 15.204 69.177 20.623 93.753 2.71 12.288 4.93 22.348 6.472 29.334l2.408 10.904c0 0 0 0 15.804-3.496l-15.804 3.496z" />
<glyph unicode="&#xe907;" glyph-name="CR" data-tags="CR" d="M955.736 960l-460.393-238.934-360.653 138.923 104.243-325.701-238.934-530.025 495.343 238.936 325.7-104.243-104.243 325.7 238.936 495.343zM734.552 738.816l-128.344-265.967 56.047-175.035-175.036 55.978-266.103-128.344 128.341 284.674-55.978 175.104 193.741-74.752 247.333 128.342z" />
<glyph unicode="&#xe908;" glyph-name="Anemo" data-tags="Anemo" d="M13.618 588.573c52.156-81.92 123.768-168.96 229.513-166.161 69.974 4.574 162.065-15.292 182.886-92.842 21.367-58.982-56.32-135.237-103.287-76.664-7.373 12.698-2.731 20.48 11.81 22.187 68.267-1.366 92.024 76.458 27.307 103.355-55.501 6.827-105.677-35.976-159.062-48.264-148.753-43.008-238.524 133.87-189.167 258.253v0.136zM690.277 422.685c-72.090 5.052-167.253-38.434-162.133-121.856-0.2-9.571 1.671-19.073 5.485-27.854s9.482-16.633 16.613-23.020c7.132-6.386 15.56-11.156 24.707-13.981s18.797-3.64 28.288-2.388c21.573-0.819 49.426 37.342 20.070 41.847-110.66 0-69.768 143.36 23.621 95.574 48.861-28.053 103.679-44.126 159.947-46.899 122.88 12.083 175.579 157.014 135.782 263.441-59.458-88.951-133.595-177.288-252.381-164.795v-0.069zM525.072 475.388c53.461 11.373 104.762 31.216 151.962 58.778 35.82 20.183 64.906 50.466 83.63 87.071 18.717 36.605 26.251 77.913 21.65 118.77s-21.131 79.455-47.528 110.98c-26.392 31.525-61.485 54.58-100.897 66.291 37.29-74.58 46.818-159.998 26.88-240.963s-68.040-152.191-135.697-200.927zM433.39 476.343c-68.816 47.877-117.922 119.099-138.198 200.443s-10.346 167.281 27.947 241.857c-36.223-10.742-68.874-31.060-94.511-58.812s-43.309-61.908-51.152-98.866c-7.844-36.958-5.567-75.348 6.589-111.12s33.742-67.601 62.479-92.128c55.595-39.437 118.127-68.040 184.32-84.31l2.526 2.935zM798.069 482.487c-78.027-44.782-177.083-24.781-249.24-83.080-17.134-9.373-31.355-23.284-41.101-40.209s-14.64-36.206-14.147-55.73c0.494-19.524 6.357-38.534 16.946-54.944s25.495-29.586 43.080-38.080c15.974-6.826 31.539-14.063 47.036-0.956 15.223 11.401 27.306 11.059 49.152 0.819-75.315-64.41-134.116-145.92-171.486-237.707-37.906 91.611-96.921 172.961-172.237 237.434 7.149 5.362 15.845 8.26 24.781 8.26s17.632-2.898 24.781-8.26c40.96-23.689 98.509 27.306 106.155 68.266 16.862 80.486-63.898 143.77-135.305 159.062-34.953 8.192-70.861 12.425-105.814 20.48-161.587 32.973-185.89 196.608-106.769 321.878 45.602-334.507 273.066-242.688 363.998-427.35 90.112 182.272 319.35 94.345 364.882 427.35 55.296-96.598 71.958-240.435-44.712-297.234zM516.743 128.117l-38.912 25.871-39.049-26.28 39.595-66.355 38.366 66.765zM477.831 231.402c-6.114-14.743-15.401-27.958-27.2-38.706-11.799-10.745-25.819-18.769-41.067-23.487 11.84-3.92 24.577-4.257 36.604-0.951s22.807 10.101 30.98 19.522c29.15-22.323 54.272-28.467 71.475-17.408-15.662 4.125-30.178 11.761-42.445 22.34-12.267 10.575-21.962 23.807-28.348 38.69z" />
<glyph unicode="&#xe909;" glyph-name="DEF" data-tags="DEF" d="M954.192 910.438c0.015 3.883-1.104 7.686-3.233 10.938-2.121 3.252-5.149 5.81-8.711 7.358-27.853 11.742-120.422 31.266-427.828 31.266s-399.838-19.524-427.69-31.266c-3.585-1.542-6.637-4.106-8.773-7.372s-3.264-7.089-3.242-10.991v-507.904c-0.053-10.897 2.9-21.598 8.533-30.925 107.793-177.494 365.022-331.437 420.522-364.476 3.095-1.851 6.634-2.831 10.24-2.831s7.146 0.98 10.24 2.831c53.931 32.907 311.297 183.501 421.135 364.202 5.705 9.354 8.711 20.106 8.675 31.062l0.132 508.109zM514.42 142.987c4.028-0.892-243.029 137.691-329.318 298.187v411.989c0 0 0 30.857 329.318 30.857v-741.032z" />
<glyph unicode="&#xe90a;" glyph-name="DEF_P" data-tags="DEF_P" d="M477.85 960c-307.337 0-399.906-19.456-427.759-31.198-3.583-1.557-6.628-4.136-8.752-7.415s-3.236-7.111-3.194-11.017v-507.973c-0.028-10.85 2.924-21.5 8.533-30.788 92.365-152.101 293.615-286.449 384.478-342.696l21.777 29.082c32.495 43.483 52.361 70.656 74.752 101.032-0.205 0.139-0.41 0.066-0.682 0.205l-0.751 0.344-1.092 0.271c-17.189 7.109-33.153 16.874-47.309 28.943v-45.875c4.028-0.885-243.030 137.765-329.318 298.328v411.921c0 0 0 30.72 329.318 30.72v-407.006c14.336 12.288 30.72 21.982 48.128 28.809 22.045 8.866 45.597 13.387 69.359 13.312 23.688 0 47.445-4.233 69.837-13.312 22.459-8.806 42.462-22.528 58.778-39.731l0.136-0.137c1.843-1.843 2.322-4.506 4.028-6.417 5.595 13.175 10.24 26.624 24.642 36.659 17.891 12.288 36.528 15.36 49.357 15.36h115.376v398.95c0.037 3.907-1.075 7.739-3.196 11.017-2.128 3.278-5.171 5.858-8.755 7.415-27.78 11.742-120.349 31.198-427.688 31.198zM802.18 432.919h105.611c4.367-1.502 6.005-4.051 4.915-7.646-171.308-238.43-272.567-377.079-303.788-415.947-1.821-3.957-5.643-5.573-11.469-4.849h-67.447c-8.010 0-12.743 2.187-14.199 6.554 176.765 236.659 271.317 366.753 283.649 390.282 1.821 2.959 2.728 6.213 2.728 9.762 0 4.051-2.363 9.671-7.095 16.862 0.768 3.323 3.138 4.984 7.095 4.984zM494.572 332.635c0 17.021 2.548 32.108 7.646 45.261 5.097 13.38 11.993 24.621 20.685 33.724 9.057 9.466 19.752 16.52 32.086 21.162 12.288 5.097 25.713 7.646 40.278 7.646 14.882 0 28.513-2.526 40.891-7.578 12.333-4.733 22.87-11.832 31.608-21.299 9.011-9.102 16.065-20.343 21.162-33.723 5.097-13.017 7.646-28.080 7.646-45.193 0-16.702-2.548-31.789-7.646-45.261-5.097-13.016-12.197-24.257-21.299-33.724-8.647-9.057-19.138-16.11-31.471-21.162-12.379-4.78-25.987-7.164-40.823-7.164-14.563 0-27.99 2.363-40.278 7.096-12.379 5.097-23.097 12.197-32.154 21.299-8.692 9.466-15.587 20.707-20.685 33.723-5.097 13.426-7.646 28.513-7.646 45.261v-0.068zM635.611 332.635c0 11.606-1.093 21.959-3.277 31.062-1.821 9.057-4.552 16.657-8.192 22.801-3.231 6.508-7.396 11.423-12.493 14.746-5.097 3.641-10.559 5.462-16.384 5.462-6.099 0-11.697-1.798-16.794-5.394-4.734-3.322-8.921-8.26-12.562-14.814-3.277-6.144-6.007-13.744-8.192-22.801-1.821-9.103-2.73-19.456-2.73-31.062s0.91-21.959 2.73-31.062c2.185-9.057 4.915-16.839 8.192-23.347 3.55-6.508 7.692-11.423 12.425-14.746 5.188-3.231 10.809-4.846 16.862-4.846 5.917 0 11.378 1.616 16.384 4.846s9.193 8.147 12.562 14.746c3.64 6.508 6.371 14.291 8.192 23.347 2.184 9.103 3.277 19.456 3.277 31.062zM753.715 127.356c0 17.115 2.545 32.197 7.643 45.261 5.098 13.385 11.988 24.62 20.685 33.726 9.055 9.465 19.749 16.567 32.088 21.299 12.376 5.005 25.805 7.508 40.272 7.508 14.885 0 28.511-2.526 40.894-7.574 12.332-4.74 22.872-11.835 31.605-21.299 9.011-9.106 16.113-20.348 21.299-33.726 5.010-13.019 7.512-28.080 7.512-45.195 0-16.699-2.553-31.766-7.643-45.188-5.098-13.019-12.2-24.261-21.299-33.726-8.653-9.106-19.141-16.201-31.473-21.299-12.383-4.732-25.988-7.102-40.821-7.102-14.519 0-27.948 2.37-40.28 7.102-12.383 5.098-23.099 12.193-32.154 21.299-8.697 9.465-15.587 20.707-20.685 33.726-5.098 13.422-7.643 28.511-7.643 45.261v-0.073zM894.749 129.068c0 11.6-1.090 21.957-3.277 31.056-1.821 9.055-4.549 16.662-8.192 22.806-3.233 6.502-7.395 11.418-12.493 14.746-4.732 3.591-10.196 5.391-16.384 5.391-5.778 0-11.191-1.821-16.245-5.464-5.098-3.277-9.465-8.17-13.107-14.672-3.277-6.144-6.005-13.795-8.192-22.938-1.821-9.011-2.728-19.368-2.728-31.064 0-11.564 0.907-21.87 2.728-30.925 2.187-9.106 4.915-16.911 8.192-23.413 3.643-6.51 8.009-11.403 13.107-14.68 5.054-3.321 10.489-4.981 16.318-4.981 6.144 0 11.579 1.66 16.311 4.981 5.098 3.277 9.26 8.17 12.493 14.68 3.643 6.502 6.371 14.307 8.192 23.413 2.187 9.055 3.277 19.412 3.277 31.064z" />
<glyph unicode="&#xe90b;" glyph-name="Dendro" data-tags="Dendro" d="M524.016 721.352l-46.188-53.764-46.218 53.764c-10.166 11.845-16.269 26.637-17.414 42.205s2.73 31.093 11.055 44.298l52.577 83.217 52.547-83.217c8.324-13.204 12.199-28.73 11.055-44.298s-7.248-30.359-17.414-42.205zM815.799 434.537l-2.37-1.734 1.792-1.552c-21.087-119.333-116.258-171.666-170.386-197.589-61.188-29.271-166.919-89.577-166.919-160.497 0 70.919-105.762 131.226-166.95 160.497-54.159 25.923-149.333 78.256-170.388 197.559l1.826 1.582-2.433 1.765c-2.5 15.38-3.731 30.939-3.682 46.522 0 155.175 123.288 223.482 200.419 223.482 58.236 0 100.408-34.838 117.416-51.938 2.496-2.498 4.056-5.78 4.416-9.294s-0.501-7.044-2.439-9.996l-12.384-19.016c-0.637-0.982-1.499-1.797-2.515-2.379s-2.155-0.913-3.324-0.966c-1.169-0.054-2.333 0.172-3.397 0.658s-1.998 1.219-2.722 2.139c-16.157 20.264-64.504 67.364-148.786 35.903-63.013-23.581-102.445-82.151-102.445-152.132s43.235-171.696 156.422-213.655c113.186-41.958 140.905-109.779 140.905-109.779s27.718 67.82 140.905 109.779c113.189 41.958 156.423 143.674 156.423 213.655s-39.556 128.43-102.386 151.95c-84.342 31.522-132.72-15.579-148.785-35.843-0.725-0.919-1.657-1.652-2.722-2.138s-2.229-0.712-3.398-0.659c-1.169 0.053-2.308 0.385-3.323 0.967s-1.878 1.397-2.515 2.378l-12.384 19.016c-1.927 2.957-2.781 6.485-2.421 9.995s1.913 6.791 4.399 9.296c17.16 17.221 59.21 51.938 117.415 51.938 77.161 0 200.422-68.277 200.422-223.482 0.044-15.552-1.192-31.081-3.686-46.431zM142.261 432.735l-1.826-1.582c-0.213 1.096-0.426 2.221-0.578 3.347l2.403-1.765zM428.253 331.955c-96.361 84.707-118.663 141.027-96.816 191.687s82.547 30.244 82.547 30.244c-51.938 53.854-95.813 43.783-120.154 30.152-14.681-8.395-26.38-21.157-33.469-36.512-19.777-41.836-1.734-82.333 28.753-116.716-19.23-1.582-42.993-9.858-56.685-37.851 0 0 14.149 14.514 33.469 17.039s38.641 3.561 53.612-8.519c49.625-41.988 108.744-69.524 108.744-69.524zM185.234 677.797c-1.554 11.93-7.273 22.927-16.146 31.049s-20.333 12.848-32.353 13.343l-61.948 2.525 14.514-51.116c3.645-12.853 11.81-23.957 22.99-31.269s24.626-10.341 37.862-8.528l39.981 5.507-4.899 38.489zM142.295 432.788l-1.826-1.583-24.007-20.781c-6.034-5.25-13.625-8.373-21.606-8.89s-15.911 1.601-22.572 6.029l-30.426 20.081 31.856 23.459c6.273 4.619 13.859 7.11 21.649 7.11s15.375-2.491 21.648-7.11l22.972-16.552 2.313-1.764zM815.799 434.5c-0.146-1.096-0.366-2.191-0.578-3.286l-1.792 1.552 2.37 1.734zM527.429 331.935c96.33 84.707 118.663 141.027 96.786 191.686s-82.638 30.335-82.638 30.335c51.938 53.855 95.813 43.784 120.185 30.153 14.681-8.395 26.38-21.158 33.469-36.512 19.747-41.836 1.735-82.334-28.752-116.716 19.229-1.582 42.962-9.858 56.684-37.851 0 0-14.148 14.513-33.469 17.039s-38.641 3.56-53.611-8.519c-49.535-42.080-108.653-69.616-108.653-69.616zM770.443 677.797c1.565 11.925 7.285 22.915 16.157 31.035s20.326 12.85 32.336 13.357l61.981 2.525-14.512-51.116c-3.657-12.846-11.827-23.943-23.003-31.252s-24.62-10.345-37.851-8.545l-39.98 5.507 4.871 38.489zM913.693 427.543l-30.427-20.081c-6.656-4.421-14.585-6.535-22.557-6.018s-15.557 3.636-21.592 8.878l-25.834 22.363 2.377 1.734 22.755 16.674c6.276 4.626 13.868 7.121 21.665 7.121s15.389-2.496 21.665-7.121l31.949-23.551z" />
<glyph unicode="&#xe90c;" glyph-name="Electro" data-tags="Electro" d="M309.236 37.274c70.358-4.923 140.924 5.998 206.506 31.949-16.179 4.981-31.402 9.15-46.080 14.336-14.856 5.12-29.5 10.832-43.895 17.137-34.774 13.422-66.347 33.982-92.686 60.35-26.339 26.375-46.857 57.98-60.232 92.769-13.99 39.886-16.985 82.803-8.67 124.246 7.987-9.489 15.155-18.91 23.21-27.306 8.498-9.462 19.373-16.478 31.498-20.319s25.055-4.368 37.452-1.526c22.519 4.084 43.14 15.266 58.851 31.909s25.683 37.875 28.462 60.592c3.65 21.941 2.835 44.393-2.395 66.013s-14.77 41.961-28.046 59.807c-13.276 17.847-30.017 32.831-49.22 44.055s-40.474 18.46-62.538 21.271c-48.074 5.481-96.532-6.277-136.749-33.18s-69.581-67.204-82.865-113.73c-15.182-48.273-22.691-98.629-22.255-149.231-0.341-21.094 0-42.189 0-61.44-42.681 77.969-63.065 166.186-58.914 254.976 3.998 67.512 22.384 133.388 53.927 193.213s75.512 112.211 128.959 153.65c-17.749-32.222-35.498-62.601-51.336-93.798-16.786-32.141-26.383-67.547-28.126-103.766 14.131 13.107 26.283 24.576 38.639 35.703 41.093 39.066 91.886 66.43 147.114 79.258 36.78 7.798 74.865 6.987 111.28-2.368s70.173-27.002 98.64-51.562l-30.174-6.144c-12.334-2.315-23.981-7.404-34.060-14.881s-18.327-17.147-24.12-28.28c-5.793-11.132-8.98-23.436-9.32-35.981s2.175-25.003 7.357-36.433c8.678-24.927 24.367-46.819 45.184-63.046s45.875-26.1 72.166-28.431c24.648-2.872 49.625-0.492 73.287 6.981s45.475 19.872 64.001 36.381c18.527 16.508 33.349 36.753 43.491 59.4s15.373 47.186 15.351 72c0.336 32.231-6.185 64.165-19.131 93.684s-32.023 55.946-55.962 77.529c-44.054 41.678-94.92 75.504-150.391 100.011-3.55 1.638-7.1 3.55-12.357 6.144 113.626-0.38 223.399-41.236 309.621-115.237 86.228-74.002 143.265-176.306 160.87-288.56-19.251 30.72-37.135 61.44-57.066 90.658-19.792 29.763-45.605 55.042-75.776 74.206 5.456-25.258 11.739-49.152 15.492-73.523 8.316-39.904 7.782-81.145-1.558-120.822s-27.26-76.824-52.509-108.827c-27.75-31.7-63.274-55.627-103.079-69.427-1.080-0.23-2.197-0.23-3.278 0 4.233 13.653 9.148 26.624 12.562 40.072 4.291 16.048 3.094 33.068-3.4 48.357s-17.912 27.968-32.44 36.021c-17.807 11.665-38.51 18.143-59.79 18.71s-42.298-4.801-60.701-15.501c-36.133-17.63-64.356-48.149-79.114-85.548s-14.979-78.967-0.622-116.522c11.474-34.946 32.978-65.742 61.834-88.556 28.855-22.806 63.785-36.623 100.436-39.717 58.157-5.31 116.59 6.561 168.075 34.136 31.744 14.672 61.44 34.128 91.75 51.879 3.818 2.116 7.373 4.778 12.288 8.055-56.781-97.062-146.308-170.695-252.504-207.669s-222.096-34.867-326.878 5.939l-0.068-0.066z" />
<glyph unicode="&#xe90d;" glyph-name="EM" data-tags="EM" d="M551.455 397.166l-1.161 3.413c-11.92 32.522-29.458 62.699-51.814 89.157-6.968 8.264-14.374 16.148-22.186 23.62 38.266-0.227 75.054 14.757 102.273 41.656s42.636 63.507 42.862 101.772c0.226 38.266-14.758 75.055-41.656 102.273s-63.507 42.636-101.773 42.862c-25.226-0.458-49.905-7.428-71.643-20.236s-39.796-31.017-52.421-52.861c-12.625-21.844-19.39-46.581-19.637-71.81s6.032-50.093 18.228-72.18c-26.642 7.605-54.213 11.465-81.92 11.469-17.278-0.023-34.522-1.531-51.542-4.506l-2.594-0.478c-90.999 378.743 514.117 476.501 532 65.946-0.3-58.827-19.663-115.971-55.184-162.864s-85.285-81.009-141.831-97.232zM801.448 543.052c-13.765 6.546-28.065 11.913-42.737 16.042-15.931-43.949-41.736-83.653-75.432-116.053h2.116c28.529 0 56.42-8.46 80.14-24.31s42.211-38.378 53.124-64.736c10.92-26.358 13.78-55.362 8.214-83.343s-19.31-53.684-39.483-73.857c-20.173-20.17-45.875-33.913-73.855-39.48s-56.984-2.706-83.342 8.214c-26.358 10.913-48.886 29.403-64.737 53.124s-24.31 51.61-24.31 80.14c-0.017 10.15-0.587 20.291-1.707 30.379-4.642 40.812-18.503 80.033-40.537 114.698s-51.662 63.865-86.644 85.392l-12.97 7.509c-43.196 23.373-91.939 34.546-141.003 32.322s-96.595-17.763-137.498-44.949c-40.904-27.186-73.635-64.994-94.683-109.369s-29.621-93.642-24.797-142.518c4.824-48.876 22.862-95.514 52.18-134.924 29.317-39.402 68.808-70.078 114.237-88.744s95.082-24.613 143.634-17.203c48.551 7.409 94.17 27.897 131.963 59.26 5.598 4.645 10.922 9.56 16.111 14.614l-1.912 2.589c-29.22 34.992-50.028 76.208-60.826 120.493-13.823-24.666-34.593-44.725-59.726-57.678s-53.522-18.227-81.631-15.17c-28.11 3.057-54.7 14.307-76.463 32.358s-37.739 42.103-45.939 69.163c-8.199 27.060-8.261 55.934-0.178 83.029s23.954 51.215 45.64 69.36c21.685 18.145 48.227 29.512 76.323 32.689s56.507-1.978 81.695-14.822c4.551-2.276 8.852-4.779 12.902-7.51 17.416-11.319 32.18-26.269 43.279-43.825s18.273-37.305 21.028-57.893c0.824-6.338 1.234-12.723 1.229-19.114-0.035-48.418 12.925-95.96 37.527-137.665 24.602-41.699 59.946-76.032 102.342-99.423 42.397-23.384 90.292-34.962 138.69-33.529 48.394 1.434 95.52 15.835 136.458 41.691s74.181 62.223 96.271 105.311c22.089 43.087 32.212 91.312 29.308 139.644s-18.725 94.998-45.817 135.131c-27.085 40.133-64.446 72.26-108.186 93.030v-0.068z" />
<glyph unicode="&#xe90e;" d="M243.154 482.003c-0.172 36.324 6.851 72.322 20.665 105.918s34.142 64.123 59.815 89.82c25.672 25.698 56.18 46.057 89.762 59.904s69.573 20.905 105.897 20.77l-0.068 160.085c-240.026-0.136-436.224-196.54-436.224-436.565l160.154 0.068z" />
<glyph unicode="&#xe90f;" d="M274.329 353.893l118.614 23.925-265.148 300.646-127.795-379.904 113.852 22.964c64.28-161.122 222.124-275.693 405.512-275.693 240.027 0 436.357 196.2 436.357 436.293s-196.33 436.429-436.357 436.429v-160.086c36.323 0.154 72.319-6.887 105.907-20.717s64.106-34.175 89.791-59.859c25.685-25.686 46.033-56.203 59.857-89.792 13.831-33.588 20.875-69.583 20.721-105.907 0.146-36.318-6.905-72.305-20.736-105.886-13.839-33.581-34.18-64.090-59.867-89.768-25.684-25.678-56.199-46.016-89.783-59.84s-69.573-20.868-105.891-20.714c-36.313-0.146-72.294 6.905-105.871 20.729-33.576 13.833-64.083 34.172-89.759 59.85-19.833 19.832-36.481 42.546-49.405 67.329z" />
<glyph unicode="&#xe910;" d="M514.521 931.035c-147.782 0-273.478-58.93-370.582-163.614l73.834 12.603c7.883 1.346 15.366-3.955 16.712-11.839s-3.955-15.366-11.839-16.712l-113.72-19.413c-4.496-0.768-9.090 0.629-12.4 3.764-3.31 3.138-4.949 7.651-4.423 12.182l12.636 108.875c0.922 7.945 8.11 13.638 16.056 12.716s13.638-8.11 12.716-16.056l-7.27-62.644c101.714 107.804 233.626 169.103 388.281 169.103 281.387 0 509.479-228.26 509.479-509.813 0-85.629-21.107-166.367-58.413-237.246-3.727-7.078-12.485-9.796-19.562-6.070s-9.796 12.483-6.070 19.56c35.17 66.82 55.081 142.94 55.081 223.756 0 265.574-215.142 480.848-480.514 480.848zM77.976 689.127c7.078-3.725 9.796-12.483 6.070-19.56-35.169-66.82-55.081-142.938-55.081-223.754 0-265.574 215.142-480.848 480.514-480.848 147.782 0 273.478 58.929 370.582 163.615l-73.832-12.603c-7.885-1.348-15.368 3.955-16.714 11.837-1.346 7.885 3.955 15.368 11.839 16.714l113.721 19.411c4.495 0.768 9.089-0.627 12.399-3.764 3.312-3.138 4.95-7.651 4.424-12.182l-12.636-108.874c-0.922-7.944-8.11-13.638-16.054-12.716-7.946 0.922-13.64 8.11-12.718 16.056l7.27 62.642c-101.714-107.803-233.626-169.101-388.28-169.101-281.387 0-509.479 228.26-509.479 509.813 0 85.627 21.108 166.365 58.415 237.244 3.725 7.078 12.483 9.796 19.561 6.070z" />
<glyph unicode="&#xe911;" glyph-name="healing" data-tags="healing" d="M1024 611.474v-326.949c0 0 0 0 0 0 0-23.767-19.246-43.039-43.004-43.081h-262.441v-262.437c-0.042-23.762-19.314-43.008-43.081-43.008 0 0 0 0 0 0h-326.949c0 0 0 0 0 0-23.767 0-43.039 19.246-43.081 43.004v262.441h-262.437c-23.762 0.042-43.008 19.314-43.008 43.081 0 0 0 0 0 0v0 326.949c0 0 0 0 0 0 0 23.767 19.246 43.039 43.004 43.081h262.441v262.437c0.042 23.762 19.314 43.008 43.081 43.008 0 0 0 0 0 0h326.949c0 0 0 0 0 0 23.767 0 43.039-19.246 43.081-43.004v-262.441h262.437c23.762-0.042 43.008-19.314 43.008-43.081 0 0 0 0 0 0v0z" />
<glyph unicode="&#xe912;" horiz-adv-x="990" d="M0 465.067c0 273.344 221.589 494.933 494.933 494.933s494.933-221.589 494.933-494.933v-34.133c0-273.343-221.59-494.933-494.933-494.933-273.344 0-494.933 221.59-494.933 494.933v34.133z" />
<glyph unicode="&#xe913;" horiz-adv-x="990" d="M764.744 439.767l-1.611 4.376c-2.908 7.926-5.82 15.855-9.428 23.46-6.199 13.087-12.653 26.095-19.104 39.103l-0.003 0.010c-3.649 7.352-7.294 14.705-10.895 22.067-7.738 15.742-15.479 31.461-23.221 47.179-7.66 15.561-15.322 31.123-22.985 46.707l-0.164 0.33v0.001c-11.875 24.142-23.75 48.284-35.625 72.518-7.837 15.984-19.678 26.824-36.502 31.601-2.543 0.75-5.168 1.245-7.82 1.745v0 0c-1.249 0.235-2.502 0.471-3.755 0.736h-5.963c-0.201-0.069-0.403-0.144-0.604-0.218-0.601-0.224-1.201-0.447-1.802-0.516-17.981-2.296-31.427-11.759-41.844-26.824-14.333-20.762-28.931-41.339-43.711-61.733-5.076-7.073-12.377-11.391-20.654-13.688-7.509-2.077-15.025-4.138-22.542-6.199v0c-18.422-5.051-36.847-10.106-55.18-15.39-9.26-2.662-18.343-3.949-27.423-0.55-6.509 2.458-12.807 5.427-19.081 8.387l-2.287 1.075c-6.035 2.734-12.054 5.509-18.078 8.287v0l-0.001 0.001c-7.125 3.285-14.261 6.574-21.448 9.81-1.46 0.66-2.916 1.345-4.373 2.029v0c-5.025 2.36-10.057 4.723-15.303 6.147-21.1 5.879-39.796 0.827-55.198-15.341-12.464-13.229-16.382-29.398-15.224-47.403 0.601-9.168 1.052-18.336 1.503-27.508v0c0.15-3.048 0.3-6.096 0.455-9.144l3.739-68.256c0.401-7.718 0.779-15.432 1.157-23.149s0.757-15.432 1.157-23.149c0.49-9.277 1.001-18.534 1.513-27.791 0.512-9.254 1.024-18.507 1.513-27.788l0.482-9.213c0.657-12.455 1.315-24.928 1.743-37.455 0.534-14.882 2.404-29.488 9.17-42.902 13.443-26.457 34.454-42.257 63.21-47.032 11.395-1.836 22.613-0.645 33.654 2.021 4.796 1.341 9.571 2.659 14.346 3.977 4.707 1.3 9.414 2.601 14.141 3.922 6.1 1.655 12.175 3.331 18.251 5.007s12.155 3.352 18.251 5.007c4.13 1.133 8.26 2.29 12.387 3.444l0.014 0.003c4.236 1.188 8.472 2.372 12.704 3.533-0.294 1.369-0.601 2.731-0.905 4.089v0.003c-0.614 2.744-1.229 5.485-1.765 8.311-1.516 8.359-1.157 16.626 2.758 24.344 6.106 12.097 18.405 18.511 30.618 18.173-12.182 0.304-24.436-6.106-30.529-18.173-3.915-7.81-4.273-15.985-2.758-24.344 0.474-2.768 1.113-5.536 1.748-8.305 0.314-1.365 0.628-2.734 0.922-4.099 0.256-0.935 0.526-1.867 0.799-2.802v0c0.591-2.014 1.181-4.038 1.608-6.106 1.423-7.168-2.495-13.78-8.994-15.8-6.676-2.021-13.53 1.468-16.026 8.544-0.703 1.99-1.171 4.021-1.638 6.038v0l-0.003 0.003c-0.242 1.055-0.485 2.103-0.761 3.144-6.089-1.652-12.162-3.328-18.231-5.004l-0.020-0.003-0.020-0.007c-6.069-1.676-12.138-3.348-18.231-5.001-4.745-1.328-9.469-2.632-14.193-3.936l-0.020-0.007-0.031-0.007-0.027-0.010c-4.731-1.307-9.462-2.611-14.217-3.939 0.621-2.389 1.246-4.871 1.867-7.349 10.595-41.523 49.234-67.888 90.098-61.368 20.122 3.215 36.591 13.138 49.678 29.307 6.851 8.445 11.568 18.080 15.039 28.358 0.451-0.038 0.915-0.048 1.376-0.055 1.092-0.020 2.161-0.041 2.993-0.468 7.212-3.86 14.868-6.339 22.88-6.246 18.964 0.092 33.922 8.175 44.25 24.986 0.799 1.195 2.669 2.021 4.273 2.389 1.41 0.297 2.836 0.457 4.27 0.618 1.638 0.184 3.28 0.365 4.898 0.761 17.36 4.226 29.914 14.513 36.502 31.785 2.761 7.072 4.273 14.329 3.205 22.139-0.423 2.847-0.679 5.734-0.939 8.639-0.123 1.369-0.246 2.741-0.386 4.113l0.079 0.017 4.564 0.833 0.915-3.536 0.007-0.024 0.003-0.024c6.721-25.965 13.438-51.937 20.241-77.906 2.137-8.178 6.052-15.066 12.551-20.487 12.465-10.288 29.471-11.575 42.557-3.123 13.889 8.912 20.565 25.354 16.469 41.892-5.431 21.777-11.083 43.438-16.739 65.123v0 0.003l-4.69 17.999 0.061 0.010c2.526 0.969 5.093 1.864 7.66 2.761v0 0c5.943 2.072 11.889 4.147 17.36 7.161 20.654 11.298 34.096 29.030 40.506 52.364 0.833 2.939 1.505 5.963 2.178 8.987 0.335 1.509 0.672 3.017 1.027 4.516v18.555c-0.263 1.208-0.468 2.427-0.672 3.642-0.42 2.481-0.836 4.946-1.731 7.291zM578.198 301.749c-23.528-6.482-47.070-12.967-70.571-19.531-0.184-0.055-0.369-0.109-0.556-0.164 0.188 0.055 0.372 0.109 0.556 0.164 23.559 6.502 47.084 13.005 70.571 19.531z" />
<glyph unicode="&#xe914;" horiz-adv-x="990" d="M615.977 493.141c-8.369 16.077-20.122 28.754-35.7 37.297-12.732 6.98-26.443 11.022-41.223 11.114-6.321-0.918-12.728-1.379-18.961-2.755-15.493-3.215-30.983-6.431-46.295-10.291-13.623-3.396-27.153-7.533-40.598-11.667-14.691-4.591-29.645-8.817-43.356-16.258-15.671-8.451-27.778-20.579-36.236-36.656-7.212-13.687-10.684-28.201-10.595-43.728 0.089-14.513 0.447-29.119 0.713-43.636 0.089-2.294 0.177-4.591 0.532-6.796 4.987-31.508 34.010-51.811 64.546-45.015 15.848 3.492 31.696 7.441 47.452 11.482 16.65 4.226 33.208 8.82 49.77 13.414 15.135 4.134 30.358 8.359 45.404 12.861 16.469 4.96 32.85 10.288 49.234 15.34 14.155 4.318 25.818 11.943 33.294 25.446 10.329 18.466 10.24 36.929 0.536 55.487-5.874 11.482-12.465 22.784-18.517 34.359zM437.207 377.484c-0.802-0.184-1.693-0.369-2.492-0.461-4.185-0.55-8.369 0.369-11.93 2.481-4.273 2.478-7.748 6.704-9.26 12.032-1.157 3.953-2.225 7.994-3.294 11.943-2.048 7.533-4.007 15.159-5.7 22.784-1.335 5.97-0.089 11.667 2.939 16.073 3.56 5.328 9.438 8.82 16.381 8.82 8.994 0 16.561-5.513 19.142-14.606 0.625-2.389 1.335-4.687 1.959-7.072 2.492-9.097 4.806-18.19 6.943-27.286 0.536-2.478 0.713-4.96 0.447-7.257-0.891-8.267-6.676-15.159-15.135-17.452zM555.080 410.187c-0.444-0.184-0.891-0.276-1.335-0.461-1.782-0.55-3.56-0.734-5.342-0.734-6.41 0-12.643 3.308-16.292 8.728-1.068 1.56-1.959 3.396-2.492 5.328-2.939 10.196-5.523 20.483-8.103 30.775-0.355 1.376-0.713 2.847-1.068 4.226-0.089 0.365-0.177 0.734-0.266 1.103v0.092c-0.177 1.099-0.177 2.113-0.266 2.57 0 3.768 0.799 7.257 2.314 10.288 2.847 5.973 8.189 10.107 14.51 11.025 9.704 1.471 19.231-4.41 21.903-13.872 1.601-5.693 3.113-11.298 4.628-16.995 0.089-0.276 0.177-0.55 0.177-0.734 1.512-5.881 2.939-11.667 4.362-17.548 2.403-10.196-3.383-20.391-12.732-23.791z" />
<glyph unicode="&#xe915;" horiz-adv-x="990" d="M390.021 608.891c10.237 2.662 20.388 5.513 30.536 8.359 20.21 5.511 40.509 11.114 60.72 16.626 6.052 1.654 10.503 7.809 10.414 14.055-0.799 3.95-1.867 7.717-5.519 10.381-4.895 3.674-10.059 2.848-15.312 1.47-6.144-1.653-12.196-3.491-18.251-5.144-22.702-6.247-45.404-12.494-68.106-18.832-4.273-1.194-7.212-3.858-8.905-7.992-2.045-5.144-1.335-10.102 2.048-14.147 3.116-3.673 7.212-6.154 12.377-4.775z" />
<glyph unicode="&#xe91b;" horiz-adv-x="1138" d="M1028.328 202.138c6.124 5.803 15.685 5.901 21.925 0.225l82.248-74.775c6.585-5.989 7.070-16.181 1.083-22.767s-16.181-7.070-22.767-1.083l-55.289 50.269v-192.71c0-8.902-7.214-16.118-16.115-16.118s-16.115 7.216-16.115 16.118v191.67l-51.712-49.002c-6.46-6.124-16.659-5.848-22.783 0.612-6.121 6.46-5.846 16.662 0.614 22.783l78.912 74.777zM787.863 202.044c6.149 5.926 15.854 6.026 22.123 0.228l80.876-74.777c6.535-6.042 6.936-16.238 0.892-22.774-6.042-6.533-16.238-6.934-22.774-0.892l-53.819 49.762v-192.294c0-8.902-7.214-16.118-16.115-16.118s-16.115 7.216-16.115 16.118v191.231l-50.299-48.469c-6.408-6.176-16.609-5.987-22.787 0.421-6.176 6.41-5.987 16.612 0.423 22.787l77.596 74.777z" />
<glyph unicode="&#xe91c;" horiz-adv-x="1138" d="M556.56 803.746l108.715-109.677 127.572 128.568-1.72 74.632c0.137 3.943 1.786 7.679 4.601 10.419s6.574 4.27 10.486 4.267h145.567c1.989 0 3.955-0.396 5.789-1.165 1.836-0.769 3.502-1.896 4.904-3.317s2.51-3.106 3.265-4.96c0.753-1.854 1.138-3.841 1.129-5.845-8.005-177.568 36.789-164.016-88.467-160.211l-127.902-128.502 108.781-109.88c2.819-2.851 4.403-6.717 4.403-10.747 0-4.028-1.584-7.894-4.403-10.747-77.219-80.639-51.28-60.546-125.19 7.077l-473.168-477.095c-5.47-5.634-12.893-8.913-20.71-9.145-64.709-9.862-130.020-15.171-195.46-15.888 0.681 66 5.943 131.871 15.748 197.127 0.016 3.964 0.807 7.885 2.329 11.539s3.744 6.97 6.538 9.755l472.837 477.496-55.451 56.007c-2.824 2.865-4.408 6.741-4.408 10.781s1.584 7.916 4.408 10.781l48.435 48.731c2.829 2.845 6.661 4.443 10.654 4.443s7.826-1.598 10.652-4.443h0.066z" />
<glyph unicode="&#xe91d;" horiz-adv-x="1138" d="M575.006 847.991l90.289-91.088 82.885 83.535-1.315 57.090 0.046 1.279c0.53 15.286 6.927 29.847 17.956 40.585 11.036 10.743 25.855 16.812 41.349 16.809 0.002 0 0.007 0 0.011 0h145.558c7.867 0 15.649-1.568 22.894-4.605 7.243-3.036 13.794-7.475 19.29-13.043 5.493-5.567 9.824-12.153 12.759-19.369 2.933-7.215 4.424-14.931 4.39-22.709l-0.005-0.901-0.041-0.9c-1.911-42.425-0.68-73.332 0.41-96.399 0.071-1.488 0.141-2.973 0.212-4.449 0.462-9.606 0.908-18.872 0.94-26.706 0.036-8.543-0.296-20.033-3.62-31.202-3.955-13.28-12.288-26.58-27.211-35.378-12.547-7.4-25.807-9.127-34.7-9.762-11.84-0.849-28.49-0.166-47.147 0.596-1.27 0.052-2.549 0.105-3.837 0.157l-83.272-83.663 77.904-78.689c11.048-11.178 17.183-26.235 17.183-41.854 0-15.462-6.014-30.379-16.857-41.52-3.179-3.322-6.265-6.56-9.255-9.698-13.888-14.575-25.682-26.954-35.116-35.226-9.523-8.349-32.345-27.416-62.94-19.040-12.768 3.495-21.927 10.718-27.329 15.515-5.53 4.913-10.9 10.807-15.271 15.638-0.856 0.947-1.727 1.911-2.612 2.892-1.44 1.597-2.922 3.24-4.46 4.933l-441.624-445.292c-12.668-12.943-29.612-20.84-47.675-22.173-66.071-9.971-132.747-15.342-199.554-16.072l-45.194-0.494 0.466 45.195c0.693 67.204 5.993 134.278 15.863 200.745 0.473 8.401 2.365 16.678 5.61 24.471 3.724 8.943 9.161 17.087 16.022 23.957 0.042 0.043 0.084 0.084 0.125 0.127l441.809 446.161-24.69 24.938c-11.027 11.187-17.151 26.237-17.151 41.848s6.124 30.662 17.151 41.847l0.061 0.063 48.497 48.794zM542.206 677.444l-472.836-477.496c-2.795-2.785-5.016-6.101-6.538-9.755s-2.313-7.575-2.329-11.539c-7.612-50.661-12.486-101.69-14.604-152.863-0.61-14.746-0.992-29.5-1.144-44.264 14.762 0.162 29.519 0.558 44.263 1.186 50.614 2.157 101.086 7.063 151.197 14.702 7.817 0.232 15.239 3.509 20.712 9.145l473.165 477.095c10.704-9.794 19.315-18.591 26.447-26.23 1.663-1.779 3.245-3.495 4.754-5.147 2.171-2.376 4.192-4.617 6.085-6.717 11.774-13.059 18.655-20.694 26.219-21.443 10.647-1.054 22.642 11.528 51.521 41.816l2.269 2.378c2.505 2.631 5.136 5.384 7.896 8.267 2.822 2.854 4.405 6.72 4.405 10.747 0 4.030-1.584 7.896-4.405 10.747l-108.781 109.88 127.904 128.502c9.971-0.303 18.867-0.667 26.795-0.993 33.628-1.379 49.892-2.046 57.367 5.733 7.002 7.284 6.299 21.975 4.936 50.423-1.149 23.976-2.765 57.725-0.63 105.049 0.007 2.004-0.375 3.991-1.131 5.845-0.753 1.854-1.864 3.54-3.265 4.96s-3.067 2.547-4.902 3.316c-1.836 0.769-3.802 1.165-5.789 1.165h-145.57c-3.912 0.003-7.671-1.528-10.486-4.267s-4.465-6.475-4.601-10.419l1.72-74.632-127.572-128.57-108.778 109.679c-2.829 2.845-6.661 4.443-10.654 4.443s-7.826-1.598-10.652-4.443l-48.435-48.731c-2.824-2.864-4.41-6.74-4.41-10.781s1.586-7.916 4.41-10.781l55.448-56.007zM575.006 847.991v0zM503.808 834.936c11.093 11.16 26.203 17.498 42.036 17.498 7.81 0 15.442-1.542 22.505-4.443z" />
<glyph unicode="&#xe91e;" glyph-name="piro-electro" data-tags="piro-electro" horiz-adv-x="696" d="M329.325 812.173c43.659 55.819 43.659 130.647 43.659 130.647 122.87-147.755 71.926-193.731 25.147-235.951-20.39-18.401-39.987-36.088-44.055-61.178-13.4-82.655 48.026-107.205 48.026-107.205-83.726 121.713 84.871 198.756 84.871 198.756s-24.584-69.251-25.692-134.005c-0.229-13.353 3.721-27.464 10.138-41.449l-53.709-53.098c-4.076 1.8-8.225 3.572-12.45 5.313-113.887 46.918-156.34 92.695-156.34 150.764 0 48.45 25.577 79.809 59.41 121.29 6.717 8.236 13.761 16.87 20.994 26.117zM156.797 250.739c-137.812 110.082-6.013 245.395-6.013 245.395s-99.48-38.085-101.629-131.856c-1.64-71.504 34.91-110.696 81.419-139.465l-25.647-25.356c-53.826 34.306-94.036 69.64-99.064 111.958-12.859 108.227 78.941 204.577 121.901 249.666 1.808 1.896 3.529 3.703 5.152 5.415 40.202 42.418 68.111 122.823 68.111 122.823 6.717-142.94 173.099-185.358 173.099-185.358-194.9-33.438-202.672-143.454-182.633-218.919l-34.697-34.302zM361.083 452.706l-68.233-67.459c-15.485-4.835-25.692-9.818-25.692-9.818 30.558 45.212 62.962 68.612 93.925 77.277zM554.142 643.574c-3.514 13.56-6.021 29.096-6.849 46.785-24.748-26.812-40.022-60.819-43.77-96.829l50.618 50.045zM530.522 563.859l49.988 49.422c16.144-16.476 30.88-34.451 43.983-53.768 51.718-76.245 74.637-168.397 64.659-259.987l-0.025 0.111c-1.257 5.716-28.713 130.435-71.694 162.396l0.002-0.008c0.528-3.412 32.772-210.93-186.786-270.897 0 0 35.637 37.325 22.774 82.258-12.861 44.931-75.713 60.34-128.61 45.097s-102.625-97.628-82.264-168.487c20.361-70.857 114.495-171.026 341.076-76.816-66.392-69.272-156.068-111.528-251.757-118.63-95.687-7.102-190.619 21.451-266.512 80.161l0.055-0.018c3.694-1.288 125.959-43.928 176.089-23.857 0 0-95.474 38.939-132.073 136.712l216.342 213.885c43.905-29.512 127.246-28.979 174.959 17.689 34.167 33.417 64.543 99.91 29.794 184.74z" />
<glyph unicode="&#xe91f;" glyph-name="Cryo" data-tags="Cryo" d="M116.571 711.232c0 0 90.931-140.083 125.815-215.928 3.55 13.517 6.349 27.307 8.466 41.097 77.666 9.613 156.48-2.338 227.806-34.543-63.587 45.795-113.33 108.221-143.77 180.43 10.922 8.738 21.436 18.022 31.402 27.852-83.080-7.646-249.719 1.093-249.719 1.093zM406.978 543.568c-50.204 21.23-103.588 33.965-157.969 37.683-1.605 20.98-6.037 41.647-13.176 61.44 20.685 3.618 40.824 10.035 59.802 19.046 30.319-45.281 67.945-85.213 111.343-118.17zM116.571 253.026c0 0 90.931 140.083 125.815 215.927 3.55-13.517 6.349-27.307 8.466-41.097 77.666-9.612 156.48 2.338 227.806 34.543-63.587-45.795-113.33-108.221-143.77-180.429 10.922-8.738 21.436-18.022 31.402-27.853-83.080 7.646-249.719-1.092-249.719-1.092zM406.978 420.688c-50.204-21.23-103.588-33.965-157.969-37.683-1.638-21.026-6.076-41.642-13.176-61.44 20.685-3.618 40.824-10.035 59.802-19.046 30.319 45.281 67.945 85.213 111.343 118.17zM514.43 21.328c0 0-75.776 148.619-123.904 216.747 13.517-3.686 26.76-8.124 39.799-13.176 47.214 62.411 76.314 136.626 84.105 214.494 7.812-77.883 36.91-152.114 84.104-214.559 12.902 5.049 26.078 9.487 39.458 13.173-48.060-68.133-123.562-216.678-123.562-216.678zM514.43 356.654c-6.592-54.173-22.165-106.868-46.080-155.921 17.271-11.944 32.904-26.214 46.421-42.328 13.517 16.113 29.15 30.384 46.422 42.328-24.129 49.020-39.932 101.713-46.762 155.921zM912.289 253.026c0 0-90.865 140.083-125.813 215.927-3.482-13.517-6.283-27.307-8.397-41.097-77.692-9.615-156.529 2.336-227.878 34.543 63.571-45.813 113.309-108.234 143.77-180.429-10.922-8.738-21.435-18.022-31.402-27.853 83.081 7.646 249.655-1.092 249.655-1.092h0.066zM621.881 420.688c50.206-21.225 103.589-33.959 157.968-37.683 1.638-21.026 6.078-41.642 13.18-61.44-20.721-3.634-40.861-10.041-59.873-19.046-30.299 45.275-67.901 85.208-111.275 118.17zM912.289 711.232c0 0-90.865-140.083-125.813-215.928-3.504 13.547-6.305 27.263-8.397 41.097-77.692 9.615-156.529-2.335-227.878-34.543 63.571 45.813 113.309 108.234 143.77 180.43-10.945 8.731-21.426 18.028-31.402 27.852 83.081-7.646 249.655 1.093 249.655 1.093h0.066zM621.881 543.568c50.206 21.225 103.589 33.959 157.968 37.683 1.638 21.026 6.078 41.643 13.18 61.44-20.721 3.634-40.861 10.041-59.873 19.046-30.299-45.275-67.901-85.207-111.275-118.17zM514.43 942.929c0 0-75.776-148.548-123.904-216.679 13.517 3.686 26.76 8.124 39.799 13.175 47.225-62.429 76.327-136.67 84.105-214.562 7.812 77.884 36.91 152.115 84.104 214.562 12.902-5.051 26.078-9.489 39.458-13.175-48.060 68.13-123.562 216.679-123.562 216.679zM514.43 607.603c-6.592 54.173-22.165 106.868-46.080 155.921 17.294 11.972 32.907 26.207 46.421 42.326 13.517-16.111 29.15-30.379 46.422-42.326-24.129-49.020-39.932-101.713-46.762-155.921zM589.727 412.838l22.255 38.161 44.237 30.994-44.237 30.993-21.846 37.546-4.642 53.794-49.016-22.87h-43.69l-48.947 22.87-4.642-53.794-21.845-37.751-44.306-30.925 44.306-30.994 21.845-38.024 4.438-53.726 48.947 22.802h43.486l49.016-22.802 4.642 53.726z" />
<glyph unicode="&#xe920;" d="M512-35.289c-266.914 0-483.29 216.375-483.29 483.289s216.376 483.29 483.29 483.29c266.914 0 483.289-216.376 483.289-483.29s-216.375-483.289-483.289-483.289zM512-64c282.769 0 512 229.231 512 512s-229.231 512-512 512c-282.769 0-512-229.231-512-512s229.231-512 512-512z" />
<glyph unicode="&#xe921;" d="M513.663 646.58c68.975-0.567 117.369-35.33 145.185-104.288 7.381-19.012 11.069-41.998 11.069-68.956 0-70.093-28.809-120.463-86.428-151.112 14.475-31.783 32.074-56.046 52.793-72.788 9.935-6.244 17.883-10.5 23.843-12.769-0.567-2.839-3.265-4.966-8.090-6.386h-28.101c-53.078 0-91.822 25.256-116.232 75.768h-6.812c-100.764 18.446-151.288 76.478-151.572 174.096 7.096 108.685 61.878 164.164 164.344 166.435zM430.215 478.444c5.108-87.12 32.641-131.105 82.598-131.957 46.834 0 72.096 44.411 75.784 133.233-5.392 80.308-30.939 122.45-76.636 126.423-48.538-4.258-75.786-46.823-81.746-127.699z" />
<glyph unicode="&#xe922;" glyph-name="shild" data-tags="shild" horiz-adv-x="924" d="M461.776-43.901c0.261-0.008 0.522-0.014 0.781-0.020 187.418-4.188 454.78 290.955 454.78 419.392v537.348c0 36.547-200.186 47.095-455.562 47.181v-166.597c144.061-85.636 288.551-280.603 288.551-280.603-12.041-26.965-31.698-50.624-57.021-68.626l-5.046-3.598c-41.986 134.439-218.861 317.773-226.485 325.632v-87.211c68.241-51.824 121.382-145.559 121.382-145.559l-105.912-81.472-15.47 18.783v-62.621c34.876 10.539 151.239 109.793 151.239 109.793 21.898-23.753 48.401-109.839 48.401-109.839-37.721-60.368-194.45-172.781-199.64-176.493v-275.49zM461.776 258.652c104.189 92.915 134.805 189.958 134.805 189.958l-134.805-102.543v-87.415zM461.776 543.222l5.134 4.387-5.134 6.242v63.894c3.644-2.452 45.55-31.431 64.777-80.201l-64.777-55.326v61.004zM461.778 864.325l-0.002 95.674c-1.050 0-2.098 0.001-3.15 0.001-256.877 0-450.847-10.485-450.847-47.182 0-7.022-0.172-26.811-0.418-55.032-1.039-119.25-3.389-389.054 0.418-482.316 4.701-115.172 266.633-414.373 453.997-419.372l0.002 95.744c-23.492 1.307-57.36 12.2-99.611 37.444-42.729 25.53-87.122 61.615-127.777 102.374-40.605 40.709-75.175 83.767-99.173 121.529-11.993 18.872-20.518 35.125-25.884 48.038-4.664 11.222-5.716 16.998-5.92 18.119-0.048 0.263-0.049 0.269-0.039 0.028-3.66 89.662-1.451 348.062-0.391 470.77 11.772 1.647 25.86 3.252 42.413 4.732 76.102 6.806 185.236 9.449 313.23 9.449 1.052 0 2.102 0 3.152-0.001zM62.994 842.004c-0.001 0 0.039 0.017 0.121 0.049-0.079-0.033-0.12-0.049-0.121-0.049zM461.778 766.205c-0.169 0.175-0.255 0.264-0.255 0.264-104.197-93.040-134.716-190.142-134.716-190.142l134.716 102.862c0.084-0.064 0.171-0.129 0.255-0.193v-61.253c-0.169 0.114-0.255 0.171-0.255 0.171-34.71-10.286-151.371-110.809-151.371-110.809-21.924 23.773-48.401 109.859-48.401 109.859 38.358 61.41 199.772 176.589 199.772 176.589 0.084-0.051 0.171-0.101 0.255-0.152v-27.196zM461.778 482.22v-11.473l-5.546 6.734 5.546 4.739zM461.778 543.224l-65.165-55.677c20.084-51.078 65.006-79.464 65.006-79.464 0.052 0.016 0.104 0.032 0.157 0.046l0.002-62.058-0.135-0.102c-68.263 51.895-121.635 145.685-121.635 145.685l105.912 81.474 15.858-19.279v-10.623zM461.778 258.654v-27.064c-0.088-0.064-0.135-0.096-0.135-0.096-144.047 85.578-288.731 280.753-288.731 280.753 12.051 26.967 31.707 50.63 57.022 68.65l5.070 3.598c41.388-132.849 214.54-313.344 226.039-325.331 0.398-0.414 0.6-0.626 0.6-0.63 0.046 0.040 0.090 0.080 0.135 0.12zM470.53-43.922c-2.672-0.058-5.331-0.058-7.973 0h7.973z" />
<glyph unicode="&#xe923;" horiz-adv-x="1170" d="M65.316 905.051c0 21.866 17.74 39.592 39.623 39.592h127.913c21.885 0 39.624-17.726 39.624-39.592s-17.742-39.592-39.624-39.592h-127.913c-21.883 0-39.623 17.726-39.623 39.592z" />
<glyph unicode="&#xe924;" glyph-name="Geo" data-tags="Geo" d="M522.568 549.786c-34.134-36.727-65.058-71.066-96.938-104.926-2.851-2.267-4.825-5.454-5.585-9.016s-0.257-7.276 1.42-10.509c20.705-46.133 52.479-86.442 92.502-117.35 1.782-0.788 3.726-1.142 5.671-1.036s3.839 0.672 5.524 1.65c26.487 17.545 53.589 34.134 78.506 53.794 52.775 40.814 101.721 86.355 146.227 136.055 12.288-24.986 26.077-47.786 35.359-72.567 13.656-36.522 24.305-74.274 36.528-111.411 1.075-3.334 1.258-6.892 0.527-10.319s-2.348-6.6-4.696-9.205c-35.204-49.405-75.674-94.842-120.692-135.51-57.344-51.544-117.009-100.352-175.718-150.184-2.387-1.799-4.871-3.46-7.441-4.988-34.134 28.058-69.632 55.779-103.766 84.86-69.004 58.639-133.939 121.915-194.355 189.369-54.355 59.551-102.271 124.674-142.95 194.287-1.938 2.798-2.976 6.12-2.976 9.523s1.038 6.725 2.976 9.523c26.156 43.239 56.969 83.483 91.887 120.013 79.817-208.57 199.407-399.638 352.119-562.586 90.585 88.481 160.112 196.201 203.434 315.187l-2.457 2.048-200.226-168.141c-2.73 2.187-5.53 4.162-7.987 6.824-69.963 66.923-128.982 144.417-174.899 229.652-1.418 1.801-2.458 3.871-3.055 6.084s-0.742 4.525-0.423 6.795c0.319 2.271 1.094 4.453 2.278 6.416s2.753 3.667 4.613 5.007c34.133 30.174 68.266 60.758 102.4 90.454 15.496 13.244 32.358 24.918 50.312 38.639l31.881-38.434zM538.132 376.047c17.954 13.653 34.816 25.395 50.244 38.638 34.543 29.696 68.267 60.28 102.4 90.454 1.844 1.353 3.399 3.062 4.572 5.025s1.941 4.142 2.259 6.407c0.318 2.265 0.18 4.571-0.407 6.782s-1.611 4.281-3.011 6.090c-45.825 85.358-104.801 162.972-174.762 229.99-2.39 2.321-5.189 4.301-7.851 6.826l-200.226-168.482-2.731 2.048c43.369 119.044 113.022 226.779 203.776 315.187 152.667-162.954 272.208-354.025 351.985-562.586 34.896 36.533 65.682 76.777 91.816 120.013 1.946 2.794 2.992 6.118 2.992 9.523s-1.046 6.729-2.992 9.523c-40.784 69.648-88.839 134.774-143.36 194.287-60.288 67.463-125.11 130.734-194.013 189.372-34.065 29.081-69.291 56.798-103.766 84.855-3.413-2.253-5.53-3.345-7.304-4.847-58.71-49.971-118.374-98.782-175.65-150.187-45.068-40.689-85.562-86.174-120.764-135.646-2.354-2.598-3.986-5.77-4.728-9.196s-0.572-6.989 0.496-10.329c12.219-37.137 22.801-75.093 36.59-111.411 9.285-24.644 22.938-47.786 35.294-72.567 44.495 49.663 93.391 95.201 146.090 136.055 25.054 19.456 52.224 36.25 78.643 53.794 1.685 0.978 3.578 1.543 5.524 1.65s3.89-0.248 5.672-1.036c40.022-30.907 71.796-71.216 92.501-117.35 1.673-3.228 2.178-6.934 1.432-10.492s-2.7-6.748-5.528-9.032c-31.949-34.134-63.214-68.267-97.006-104.926l31.812-38.434z" />
<glyph unicode="&#xe925;" horiz-adv-x="1170" d="M7.238 727.747c0 54.399 44.134 98.497 98.575 98.497h193.773c0 0 86.155 110.674 129.716 112.017s152.951 0.001 152.951 0.001c0 0 114.227-0.001 156.821 0s137.462-112.017 137.462-112.017h187.965c54.44 0 98.575-44.099 98.575-98.497v-677.892c0-54.399-44.134-98.499-98.575-98.499h-858.818c-0.356 0.571-46.899 74.735-159.724 173.817 0.001 40.558 0 522.423 0 522.423-2.904 19.312-38.721 64.7-38.721 64.7v15.452zM991.724 579.035c50.698 0 91.902 41.016 91.902 91.738 0 50.724-41.204 91.738-91.902 91.738s-91.902-41.015-91.902-91.738c0-50.722 41.204-91.738 91.902-91.738zM1046.903 670.774c0-30.398-24.705-55.042-55.179-55.042s-55.179 24.644-55.179 55.042c0 30.401 24.705 55.043 55.179 55.043s55.179-24.642 55.179-55.043zM882.259 409.071c0-163.267-132.659-295.492-296.141-295.492s-296.143 132.225-296.143 295.492c0 163.269 132.662 295.492 296.143 295.492s296.141-132.223 296.141-295.492zM586.118 159.932c137.935 0 249.754 111.543 249.754 249.139s-111.818 249.142-249.754 249.142c-137.935 0-249.756-111.545-249.756-249.142s111.821-249.139 249.756-249.139zM791.289 407.15c0-113.12-91.914-204.72-205.163-204.72s-205.163 91.599-205.163 204.72c0 113.123 91.914 204.72 205.163 204.72s205.163-91.597 205.163-204.72zM586.125 239.126c93.026 0 168.438 75.227 168.438 168.024 0 92.799-75.413 168.026-168.438 168.026s-168.438-75.227-168.438-168.026c0-92.796 75.413-168.024 168.438-168.024z" />
<glyph unicode="&#xe926;" d="M238.912 437.487c4.834 16.446 15.809 30.403 30.652 38.98 103.082 58.026 244.804-144.521 446.737-37.41 131.55-415.263-607.095-426.462-477.321-1.57h-0.068zM477.845 4.264c-230.264 0-460.8 165.274-350.482 495.618 73.143 170.238 182.765 322.343 321.126 445.577 7.923 7.939 18.239 13.049 29.355 14.541 11.151-1.459 21.514-6.544 29.491-14.473 138.394-123.247 248.039-275.376 321.197-445.645 110.043-330.345-120.22-495.618-350.688-495.618zM492.864 836.438c-4.651 2.61-9.742 4.345-15.018 5.12-5.274-0.789-10.361-2.523-15.019-5.12-116.736-90.386-278.528-360.585-269.038-505.174 8.131-68.702 41.917-131.796 94.591-176.647s120.346-68.147 189.466-65.221c69.078-2.948 136.724 20.29 189.404 65.075 52.68 44.778 86.51 107.8 94.724 176.452 9.487 144.93-152.305 415.13-269.109 505.515z" />
<glyph unicode="&#xe927;" d="M544.786 411.815c32.743 37.384 68.673 71.852 107.384 103.014 38.843 28.194 64.17-75.776 64.17-75.776-52.226-28.901-112.944-38.541-171.554-27.238z" />
<glyph unicode="&#xe928;" glyph-name="HP_P" data-tags="HP_P" d="M477.85 960c-11.116-1.492-21.432-6.602-29.354-14.541-138.386-123.227-248.033-275.333-321.195-445.577-103.424-309.66 92.638-474.114 307.337-493.57l-6.144 18.842 24.439 32.768c10.104 13.517 15.019 20.48 23.211 31.473-68.822-2.509-136.070 20.963-188.39 65.748-52.32 44.778-85.884 107.6-94.030 175.984-9.558 144.589 152.302 414.789 269.038 505.174 4.664 2.676 9.777 4.48 15.087 5.325 5.286-0.816 10.377-2.599 15.018-5.257 84.378-65.262 191.966-224.187 241.8-362.086 3.994 8.752 10.24 16.289 18.088 21.846 17.891 12.288 36.528 15.36 49.357 15.36h20.824c-72.975 165.548-180.594 313.529-315.596 433.971-7.967 7.953-18.331 13.063-29.491 14.541v0zM310.119 487.049c-14.19-0.001-28.147-3.62-40.55-10.514-14.856-8.593-25.833-22.576-30.652-39.048-68.266-223.713 103.97-326.317 263.305-312.932l25.463 34.538c-0.205 0.073-0.41 0-0.682 0.139l-0.751 0.344-1.092 0.271c-20.114 8.346-38.514 20.334-54.272 35.365l-4.506 3.408-1.229 1.777c-15.514 17.028-27.715 36.797-35.977 58.3l-0.136 0.341-0.274 0.683c-8.598 23.359-12.877 48.087-12.629 72.977 0 23.962 3.959 47.991 12.493 70.998l0.41 2.321 0.136 0.137c4.779 12.629 11.059 24.917 18.706 36.522-51.883 21.641-97.417 45.056-137.762 44.374zM666.041 519.646c-5.034-0.007-9.917-1.715-13.858-4.847-1.255-1.066-2.507-2.136-3.755-3.209 17.856-5.216 34.768-13.234 50.108-23.757-8.329 16.658-19.388 31.403-32.495 31.881v-0.068zM802.18 432.919h105.611c4.367-1.502 6.005-4.051 4.915-7.646-171.308-238.43-272.567-377.079-303.788-415.947-1.821-3.957-5.643-5.573-11.469-4.849h-67.447c-8.010 0-12.743 2.187-14.199 6.554 176.765 236.659 271.317 366.753 283.649 390.282 1.821 2.959 2.728 6.213 2.728 9.762 0 4.051-2.363 9.671-7.095 16.862 0.768 3.323 3.138 4.984 7.095 4.984zM494.572 332.635c0 17.021 2.548 32.108 7.646 45.261 5.097 13.38 11.993 24.621 20.685 33.724 9.057 9.466 19.752 16.52 32.086 21.162 12.288 5.097 25.713 7.646 40.278 7.646 14.882 0 28.513-2.526 40.891-7.578 12.333-4.733 22.87-11.832 31.608-21.299 9.011-9.102 16.065-20.343 21.162-33.723 5.097-13.017 7.646-28.080 7.646-45.193 0-16.702-2.548-31.789-7.646-45.261-5.097-13.016-12.197-24.257-21.299-33.724-8.647-9.057-19.138-16.11-31.471-21.162-12.379-4.78-25.987-7.164-40.823-7.164-14.563 0-27.99 2.363-40.278 7.096-12.379 5.097-23.097 12.197-32.154 21.299-8.692 9.466-15.587 20.707-20.685 33.723-5.097 13.426-7.646 28.513-7.646 45.261v-0.068zM635.611 332.635c0 11.606-1.093 21.959-3.277 31.062-1.821 9.057-4.552 16.657-8.192 22.801-3.231 6.508-7.396 11.423-12.493 14.746-5.097 3.641-10.559 5.462-16.384 5.462-6.099 0-11.697-1.798-16.794-5.394-4.734-3.322-8.921-8.26-12.562-14.814-3.277-6.144-6.007-13.744-8.192-22.801-1.821-9.103-2.73-19.456-2.73-31.062s0.91-21.959 2.73-31.062c2.185-9.057 4.915-16.839 8.192-23.347 3.55-6.508 7.692-11.423 12.425-14.746 5.188-3.231 10.809-4.846 16.862-4.846 5.917 0 11.378 1.616 16.384 4.846s9.193 8.147 12.562 14.746c3.64 6.508 6.371 14.291 8.192 23.347 2.184 9.103 3.277 19.456 3.277 31.062zM753.715 127.356c0 17.115 2.545 32.197 7.643 45.261 5.098 13.385 11.988 24.62 20.685 33.726 9.055 9.465 19.749 16.567 32.088 21.299 12.376 5.005 25.805 7.508 40.272 7.508 14.885 0 28.511-2.526 40.894-7.574 12.332-4.74 22.872-11.835 31.605-21.299 9.011-9.106 16.113-20.348 21.299-33.726 5.010-13.019 7.512-28.080 7.512-45.195 0-16.699-2.553-31.766-7.643-45.188-5.098-13.019-12.2-24.261-21.299-33.726-8.653-9.106-19.141-16.201-31.473-21.299-12.383-4.732-25.988-7.102-40.821-7.102-14.519 0-27.948 2.37-40.28 7.102-12.383 5.098-23.099 12.193-32.154 21.299-8.697 9.465-15.587 20.707-20.685 33.726-5.098 13.422-7.643 28.511-7.643 45.261v-0.073zM894.749 129.068c0 11.6-1.090 21.957-3.277 31.056-1.821 9.055-4.549 16.662-8.192 22.806-3.233 6.502-7.395 11.418-12.493 14.746-4.732 3.591-10.196 5.391-16.384 5.391-5.778 0-11.191-1.821-16.245-5.464-5.098-3.277-9.465-8.17-13.107-14.672-3.277-6.144-6.005-13.795-8.192-22.938-1.821-9.011-2.728-19.368-2.728-31.064 0-11.564 0.907-21.87 2.728-30.925 2.187-9.106 4.915-16.911 8.192-23.413 3.643-6.51 8.009-11.403 13.107-14.68 5.054-3.321 10.489-4.981 16.318-4.981 6.144 0 11.579 1.66 16.311 4.981 5.098 3.277 9.26 8.17 12.493 14.68 3.643 6.502 6.371 14.307 8.192 23.413 2.187 9.055 3.277 19.412 3.277 31.064z" />
<glyph unicode="&#xe929;" horiz-adv-x="1170" d="M791.289 407.14c0-113.12-91.914-204.72-205.163-204.72s-205.163 91.599-205.163 204.72c0 113.123 91.914 204.722 205.163 204.722s205.163-91.599 205.163-204.722zM586.125 239.116c93.026 0 168.438 75.227 168.438 168.024 0 92.799-75.413 168.026-168.438 168.026s-168.438-75.227-168.438-168.026c0-92.796 75.413-168.024 168.438-168.024z" />
<glyph unicode="&#xe92a;" horiz-adv-x="1170" d="M7.238 712.285c0 0 35.817-45.385 38.721-64.697 0 0 0.001-481.865 0-522.423 113.26-99.462 159.726-173.819 159.726-173.819h-99.873c-54.441 0-98.575 44.098-98.575 98.497v662.443z" />
<glyph unicode="&#xe92b;" glyph-name="Hydro" data-tags="Hydro" d="M199.543 124.043l17.272-8.88c81.445-44.251 172.874-66.882 265.557-65.741 64.241 1.178 125.696 26.448 172.181 70.81 46.484 44.354 74.606 104.558 78.792 168.673 4.184 64.116-15.879 127.463-56.206 177.484s-97.977 83.063-161.521 92.578c-38.649 6.233-78.226 3.144-115.439-9.011-15.505-5.62-32.581-5.041-47.669 1.617s-27.027 18.88-33.328 34.121c-6.301 15.241-6.478 32.325-0.494 47.694s17.665 27.836 32.612 34.805c31.921 14.28 66.137 22.742 101.035 24.986 75.581 5.505 150.799-14.754 213.391-57.474s108.871-105.383 131.289-177.773c21.621-75.334 16.296-155.853-15.075-227.68-31.364-71.825-86.799-130.463-156.755-165.806 287.951 105.333 322.423 533.091 55.432 683.824-69.52 44.949-152.265 64.908-234.632 56.593-95.458-7.188-184.576-50.526-249.174-121.173-10.064-11.437-19.543-23.376-28.399-35.772-6.999-9.767-16.788-17.191-28.081-21.297s-23.564-4.701-35.202-1.709c-12.137 1.355-23.624 6.186-33.082 13.913s-16.484 18.019-20.234 29.641c-2.069 7.842-2.531 16.020-1.358 24.045s3.957 15.729 8.184 22.649c23.728 44.42 55.245 84.214 93.048 117.487 74.307 67.282 167.669 109.836 267.195 121.788 91.808 11.67 185.024-3.832 268.113-44.588 83.087-40.756 152.405-104.978 199.377-184.72 183.157-279.894-17.957-681.776-347.75-714.888-74.56-10.145-150.467-2.107-221.252 23.413-46.882 18.651-87.672 49.935-117.829 90.39zM576.102 132.162c-23.040-17.152-50.811-26.77-79.522-27.553s-56.965 7.314-80.904 23.186c-15.833 8.872-29.022 21.797-38.216 37.442-9.196 15.653-14.067 33.463-14.116 51.61s4.727 35.984 13.839 51.681 22.231 28.69 38.015 37.648c8.369 5.595 17.927 9.163 27.915 10.421s20.132 0.17 29.627-3.176c9.495-3.346 18.079-8.858 25.071-16.1s12.202-16.014 15.214-25.62c52.566-140.629 180.019-10.035 97.212 85.060-16.904 22.777-39.465 40.743-65.449 52.119s-54.488 15.765-82.69 12.735c-23.46-1.704-46.31-8.266-67.098-19.269s-39.064-26.209-53.665-44.651c-14.601-18.442-25.209-39.717-31.15-62.476s-7.088-46.505-3.365-69.726c3.723-23.23 12.233-45.429 24.991-65.185 12.758-19.763 29.483-36.659 49.117-49.613s41.745-21.687 64.932-25.637c23.187-3.957 46.942-3.050 69.76 2.662 21.757 5.288 42.195 14.994 60.046 28.511s32.731 30.559 43.719 50.066c-14.336-11.33-27.989-23.962-43.281-34.136zM150.87 309.998c-8.952 0-17.703-2.654-25.146-7.628s-13.244-12.042-16.67-20.312c-3.426-8.271-4.322-17.371-2.575-26.151s6.057-16.845 12.387-23.175c6.33-6.327 14.395-10.642 23.174-12.383 8.78-1.748 17.881-0.856 26.151 2.575 8.27 3.423 15.34 9.224 20.313 16.667s7.628 16.194 7.628 25.146c0 5.944-1.171 11.829-3.446 17.321s-5.608 10.481-9.811 14.683c-4.203 4.203-9.192 7.537-14.683 9.811s-11.377 3.445-17.32 3.445zM65.468 541.286c-12.941 0.014-25.594-3.812-36.36-10.993s-19.158-17.394-24.117-29.347c-4.958-11.953-6.259-25.108-3.738-37.801s8.751-24.351 17.902-33.502c9.15-9.15 20.81-15.38 33.502-17.902s25.848-1.22 37.801 3.738c11.953 4.958 22.167 13.351 29.348 24.117s11.007 23.419 10.993 36.359c-0.018 17.322-6.907 33.928-19.155 46.177s-28.855 19.137-46.176 19.155z" />
<glyph unicode="&#xe92c;" glyph-name="Phys" data-tags="Phys" d="M784.443 419.416l-169.915-113.322v-120.83l169.915 113.32 169.918-113.32v120.83l-169.918 113.322zM784.443 253.255l-169.915-113.325v-120.898l169.915 113.32 169.918-113.32v120.898l-169.918 113.325zM507.213 846.833l-49.902-49.903c-2.91-2.918-4.544-6.87-4.544-10.99s1.634-8.074 4.544-10.991l57.139-57.139-487.697-487.629c-5.738-5.778-8.995-13.568-9.080-21.709-10.11-66.714-15.561-134.049-16.316-201.523 67.47 0.783 134.806 6.239 201.523 16.318 8.143 0.080 15.931 3.343 21.709 9.077l487.629 487.697c76.189-69.086 49.492-89.634 129.028-7.236 2.904 2.918 4.542 6.87 4.542 10.991s-1.638 8.073-4.542 10.99l-112.165 112.026 131.482 131.482c129.024-4.096 82.944-17.954 91.136 163.499 0 4.116-1.631 8.065-4.535 10.982s-6.846 4.565-10.964 4.583h-149.636c-4.030 0.003-7.892-1.552-10.796-4.339s-4.615-6.59-4.769-10.611l1.704-76.185-131.482-131.482-112.026 112.094c-2.918 2.91-6.87 4.544-10.991 4.544s-8.073-1.634-10.991-4.544z" />
<glyph unicode="&#xe92d;" glyph-name="Pyro" data-tags="Pyro" d="M522.181 4.264c-105.267 100.352-237.499 153.6-352.256 237.365-100.488 75.094-18.364 208.009 39.936 284.194 44.731 53.869 84.768 111.469 119.672 172.169-0.478-109.227 106.496-146.91 189.85-184.934-157.15 9.216-291.090-174.285-165.683-298.53-127.864 52.77-184.32 167.594-88.747 284.672-24.161-9.060-45.45-24.436-61.646-44.524s-26.708-44.153-30.438-69.687c-3.73-25.533-0.543-51.6 9.23-75.482s25.773-44.706 46.332-60.3c90.931-61.442 195.584-101.239 283.511-168.004 1.859-1.243 3.995-2.019 6.222-2.238 2.226-0.227 4.473 0.095 6.545 0.944 84.65 60.891 178.176 107.652 267.674 160.356 112.916 60.552 100.35 189.303-10.514 244.599 99.329-192.512-82.807-337.371-266.24-323.928-199.68 14.614-210.261 216.681-42.734 184.664-17.666-9.873-31.713-25.135-40.088-43.557s-10.643-39.041-6.47-58.843c35.909-102.056 201.66-66.494 260.096-2.116 74.752 70.11 22.323 206.916-66.833 245.76-101.854 47.786-303.309 104.243-225.28 255.112 47.514 74.070 103.082 123.494 111.753 218.044 29.559-39.663 98.509-117.35 84.65-167.39-16.384-49.152-74.070-67.038-92.023-116.736-5.762-10.729-9.314-22.506-10.445-34.632s0.182-24.356 3.861-35.966c3.678-11.61 9.649-22.363 17.557-31.626s17.595-16.843 28.484-22.295c-69.495 74.41 6.144 164.454 78.507 203.502-21.364-47.958-25.306-101.871-11.146-152.427s45.531-94.577 88.697-124.463c-49.493 109.227-91.955 111.958-8.738 232.653 16.146-76.1 60.11-143.435 123.29-188.826 140.425-123.358 129.709-254.702-35.499-345.909-91.012-45.722-175.483-103.446-251.153-171.622h0.068zM559.114 243.2c258.798 97.212-65.126 352.598-161.382 137.011 96.666 55.228 229.171-29.15 161.382-137.011z" />
<glyph unicode="&#xe92e;" horiz-adv-x="990" d="M0 465.067c0 273.344 221.589 494.933 494.933 494.933s494.933-221.589 494.933-494.933v-34.133c0-273.343-221.59-494.933-494.933-494.933-273.344 0-494.933 221.59-494.933 494.933v34.133z" />
<glyph unicode="&#xe92f;" horiz-adv-x="990" d="M688.217 674.115c0 0 52.081 21.008 47.739-30.011-1.444-21.008-14.466-94.537-24.593-174.067l-34.72-235.592c0 0-2.891-34.512-28.931-40.513-26.040-6.004-65.103 21.006-72.335 27.010-5.786 4.502-108.5 72.028-144.667 105.039-10.127 9.004-21.702 27.013 1.447 48.019l151.9 150.057c17.36 18.009 34.72 60.023-37.615 9.004l-202.534-142.554c0 0-23.146-15.005-66.546-1.502l-94.035 30.013c0 0-34.72 22.508 24.593 45.018 144.667 70.526 322.611 142.554 480.297 210.079z" />
<glyph unicode="&#xe930;" horiz-adv-x="990" d="M0 465.067c0 273.344 221.589 494.933 494.933 494.933s494.933-221.589 494.933-494.933v-34.133c0-273.343-221.59-494.933-494.933-494.933-273.344 0-494.933 221.59-494.933 494.933v34.133z" />
<glyph unicode="&#xe931;" horiz-adv-x="990" d="M740.489 365.64c0 0 56.023-57.238 69.881-83.722 0.27-0.382 0.478-0.806 0.625-1.256 5.646-9.783 7.031-17.452 4.26-23.115-4.676-9.356-20.511-14.049-25.88-14.445h-99.017c-6.895 0-21.238 1.864-38.697 14.336-13.339 9.643-26.61 25.518-39.462 41.039-19.193 23.043-35.789 43.042-52.593 43.042-2.123 0.003-4.229-0.358-6.236-1.075-12.715-4.157-28.86-22.9-28.86-72.827 0-15.626-11.916-24.515-20.268-24.515h-45.35c-15.452 0-95.898 5.591-167.233 83.401-87.41 95.263-165.916 286.362-166.679 288.044-4.885 12.365 5.37 19.103 16.456 19.103h99.986c13.408 0 17.773-8.387 20.822-15.912 3.534-8.639 16.63-43.189 38.11-82.002 34.784-63.15 56.161-88.849 73.241-88.849 3.209-0.010 6.362 0.857 9.144 2.509 22.313 12.687 18.156 95.119 17.118 112.108 0 3.297-0.038 36.809-11.469 53.009-8.178 11.611-22.105 16.127-30.522 17.775 2.249 3.369 7.031 8.53 13.165 11.576 15.278 7.885 42.889 9.032 70.294 9.032h15.21c29.727-0.43 37.417-2.401 48.227-5.233 21.757-5.376 22.173-19.963 20.265-69.636-0.553-14.193-1.143-30.177-1.143-48.995 0-4.014-0.171-8.492-0.171-13.046-0.659-25.481-1.526-54.19 15.865-65.98 2.256-1.454 4.861-2.225 7.52-2.222 6.028 0 24.078 0 73.032 86.91 21.48 38.386 38.11 83.651 39.253 87.056 0.969 1.9 3.881 7.24 7.414 9.39 2.516 1.383 5.332 2.075 8.178 2.007h117.62c12.817 0 21.514-2.007 23.211-7.025 2.843-8.136-0.553-32.971-54.255-108.092-9.042-12.51-16.975-23.334-23.938-32.795-48.678-66.089-48.678-69.42 2.874-119.596z" />
<glyph unicode="&#xe932;" horiz-adv-x="990" d="M0 465.067c0 273.344 221.589 494.933 494.933 494.933s494.933-221.589 494.933-494.933v-34.133c0-273.343-221.59-494.933-494.933-494.933-273.344 0-494.933 221.59-494.933 494.933v34.133z" />
<glyph unicode="&#xe933;" horiz-adv-x="990" d="M392.192 217.6c-7.598 0.014-15.063 2.031-21.658 5.847-14.848 8.516-24.081 25.044-24.081 42.988v363.129c0 17.993 9.233 34.472 24.081 42.987 6.752 3.926 14.421 5.945 22.211 5.846 7.786-0.099 15.404-2.313 22.057-6.41l306.715-185.771c6.39-4.055 11.66-9.687 15.312-16.367 3.656-6.68 5.571-14.189 5.571-21.825s-1.915-15.145-5.571-21.825c-3.652-6.68-8.922-12.312-15.312-16.367l-306.767-185.822c-6.806-4.164-14.606-6.38-22.559-6.41z" />
<glyph unicode="&#xea3c;" glyph-name="arrow-right2" data-tags="arrow-right, right, next" d="M621.254 82.746l320 320c24.994 24.992 24.994 65.516 0 90.51l-320 320c-24.994 24.992-65.516 24.992-90.51 0-24.994-24.994-24.994-65.516 0-90.51l210.746-210.746h-613.49c-35.346 0-64-28.654-64-64s28.654-64 64-64h613.49l-210.746-210.746c-12.496-12.496-18.744-28.876-18.744-45.254s6.248-32.758 18.744-45.254c24.994-24.994 65.516-24.994 90.51 0z" />
<glyph unicode="&#xea3e;" glyph-name="arrow-down2" data-tags="arrow-down, down, download, bottom" d="M877.254 338.746l-320-320c-24.992-24.994-65.514-24.994-90.508 0l-320 320c-24.994 24.994-24.994 65.516 0 90.51 24.994 24.996 65.516 24.996 90.51 0l210.744-210.746v613.49c0 35.346 28.654 64 64 64s64-28.654 64-64v-613.49l210.746 210.746c12.496 12.496 28.876 18.744 45.254 18.744s32.758-6.248 45.254-18.746c24.994-24.994 24.994-65.514 0-90.508z" />
</font>
</defs>
</svg>
